<?xml version="1.0" standalone="no"?>
<!DOCTYPE svg PUBLIC "-//W3C//DTD SVG 1.1//EN" "http://www.w3.org/Graphics/SVG/1.1/DTD/svg11.dtd" >
<svg>
<metadata>
Created by FontForge 20120731 at Tue Sep 20 08:21:25 2016
 By www-data
Copyright (c) 2016 by PA.ST All rights reserved.
</metadata>
<defs>
<font id="Crapaud-gros" horiz-adv-x="601" >
  <font-face 
    font-family="Crapaud"
    font-weight="600"
    font-stretch="normal"
    units-per-em="1000"
    panose-1="2 11 3 0 0 0 0 0 0 0"
    ascent="750"
    descent="-250"
    x-height="442"
    cap-height="592"
    bbox="-18.7847 -277 1099.63 813"
    underline-thickness="50"
    underline-position="-50"
    stemh="90"
    stemv="90"
    unicode-range="U+0020-2122"
  />
    <missing-glyph />
    <glyph glyph-name="space" unicode=" " horiz-adv-x="304" 
 />
    <glyph glyph-name="e" unicode="e" horiz-adv-x="570" 
d="M287 -33c-65 0 -126 26 -172 72s-71 107 -71 172s25 126 71 172s107 71 172 71c110 0 207 -74 235 -180c3 -11 4 -20 4 -30c0 -62 -50 -112 -111 -112h-260c27 -45 76 -75 132 -75c25 0 45 -20 45 -45c0 -24 -20 -45 -45 -45zM134 222h281c18 0 23 16 20 29
c-18 67 -79 113 -148 113c-81 0 -147 -63 -153 -142z" />
    <glyph glyph-name="f" unicode="f" horiz-adv-x="429" 
d="M362 454c25 0 45 -20 45 -45s-20 -45 -45 -45h-117v-279c0 -25 -20 -45 -45 -45c-24 0 -45 20 -45 45v279h-68c-24 0 -45 20 -45 45s21 45 45 45h68v102c0 114 93 207 207 207c25 0 45 -21 45 -45c0 -25 -20 -45 -45 -45c-64 0 -117 -53 -117 -117v-102h117z" />
    <glyph glyph-name="dagger" unicode="&#x2020;" horiz-adv-x="682" 
d="M583 462c5 0 9 -4 9 -9s-4 -9 -9 -9s-9 3 -9 8c-10 1 -50 3 -50 -5c0 -5 6 -10 12 -13c2 2 4 3 7 3c5 0 9 -4 9 -9s-4 -9 -9 -9s-9 4 -9 9v3c-11 8 -32 21 -53 21c-29 0 -45 4 -45 10c0 7 9 41 19 50c0 0 -24 -19 -58 -29c-12 -4 -17 0 -18 7c-1 -1 -2 -1 -3 -2
c-7 -16 -15 -41 -14 -68c1 -25 7 -44 15 -65c7 -21 15 -42 16 -70c2 -43 -22 -102 -46 -124c-1 -1 -3 -2 -5 -2c-4 0 -7 4 -6 8c0 0 18 57 14 89c-4 38 -29 79 -39 118c-7 28 -9 79 -9 115c-1 -6 -6 -10 -18 -6c-33 10 -57 29 -57 29c10 -9 19 -43 19 -50
c0 -6 -16 -10 -45 -10c-21 0 -42 -13 -53 -21v-3c0 -5 -4 -9 -9 -9s-9 4 -9 9s4 9 9 9c3 0 5 -1 7 -3c5 3 12 8 12 13c0 8 -40 6 -50 5c0 -5 -4 -8 -9 -8s-9 4 -9 9s4 9 9 9c4 0 8 -3 9 -7c8 1 38 3 37 7c-1 3 -8 4 -14 4c-2 -3 -5 -6 -9 -6c-5 0 -9 4 -9 10c0 5 4 9 9 9
s9 -4 9 -9c13 -2 29 0 29 0l49 6c-15 24 -25 55 -25 61s3 18 18 18c14 0 26 -1 50 -10c0 0 -13 32 -13 51c0 68 30 98 36 134c-4 4 -7 11 -7 18c0 14 11 25 25 25c10 0 25 36 48 36s38 -36 48 -36c14 0 25 -11 25 -25c0 -7 -3 -14 -8 -18c6 -36 37 -66 37 -134
c0 -19 -13 -51 -13 -51c24 9 35 10 50 10c14 0 17 -12 17 -18s-10 -37 -25 -61l49 -6s16 -2 29 0c1 5 5 9 10 9s9 -4 9 -9c0 -6 -4 -10 -9 -10c-4 0 -8 3 -9 6c-6 0 -13 -1 -14 -4c-1 -4 29 -6 37 -7c1 4 5 7 9 7z" />
    <glyph glyph-name="g" unicode="g" horiz-adv-x="575" 
d="M531 211v-213c0 -65 -26 -127 -72 -173c-46 -47 -108 -72 -173 -72c-25 0 -45 20 -45 45s20 45 45 45c85 0 155 70 155 155v24c-43 -35 -97 -55 -153 -55c-65 0 -127 26 -173 72c-45 46 -71 107 -71 172s26 126 71 172c46 46 108 71 173 71c56 0 110 -19 153 -54v9
c0 25 20 45 45 45s45 -20 45 -45v-198v0zM288 57c84 0 153 69 153 154v0c0 84 -69 153 -153 153c-85 0 -154 -69 -154 -153c0 -85 69 -154 154 -154z" />
    <glyph glyph-name="h" unicode="h" horiz-adv-x="590" 
d="M467 382c46 -46 71 -107 71 -173v-123c0 -25 -20 -45 -45 -45c-24 0 -45 20 -45 45v123c0 86 -69 155 -155 155c-85 0 -155 -69 -155 -155v-123c0 -25 -20 -45 -45 -45c-24 0 -45 20 -45 45v535c0 24 21 45 45 45c25 0 45 -21 45 -45v-222c44 36 98 55 155 55
c66 0 127 -25 174 -72z" />
    <glyph glyph-name="i" unicode="i" horiz-adv-x="219" 
d="M109 41c-25 0 -45 20 -45 45v323c0 25 20 45 45 45s45 -20 45 -45v-323c0 -25 -20 -45 -45 -45zM175 620c0 -36 -30 -65 -66 -65s-65 29 -65 65c0 37 29 66 65 66s66 -29 66 -66z" />
    <glyph glyph-name="j" unicode="j" horiz-adv-x="224" 
d="M110 454c25 0 45 -20 45 -45v-382c0 -35 -7 -70 -21 -102s-33 -60 -58 -83c-18 -16 -46 -17 -64 1c-17 18 -16 47 2 64c33 32 51 74 51 120v382c0 25 21 45 45 45zM110 686c37 0 66 -29 66 -66c0 -36 -29 -65 -66 -65c-36 0 -65 29 -65 65c0 37 29 66 65 66z" />
    <glyph glyph-name="k" unicode="k" horiz-adv-x="504" 
d="M450 126c22 -11 31 -38 20 -60c-11 -23 -39 -32 -60 -20l-245 121h-14v-81c0 -25 -20 -45 -45 -45c-24 0 -45 20 -45 45v535c0 25 21 45 45 45c25 0 45 -20 45 -45v-364h8l241 212c19 16 47 14 64 -4c16 -19 14 -47 -4 -64l-204 -178z" />
    <glyph glyph-name="l" unicode="l" horiz-adv-x="315" 
d="M206 38c-80 0 -145 65 -145 145v435c0 24 20 45 45 45c24 0 45 -21 45 -45v-435c0 -31 24 -55 55 -55c24 0 45 -20 45 -45s-21 -45 -45 -45z" />
    <glyph glyph-name="m" unicode="m" horiz-adv-x="837" 
d="M579 454c114 0 206 -93 206 -207v-162c0 -25 -20 -45 -45 -45c-24 0 -45 20 -45 45v162c0 64 -52 117 -116 117c-65 0 -117 -53 -117 -117v-162c0 -25 -20 -45 -45 -45s-45 20 -45 45v162c0 64 -53 117 -117 117s-117 -53 -117 -117v-3v-159c0 -25 -20 -45 -45 -45
s-45 20 -45 45v324c0 24 20 45 45 45c22 0 40 -16 44 -37c34 23 74 37 118 37c65 0 124 -31 162 -79c38 48 96 79 162 79z" />
    <glyph glyph-name="n" unicode="n" horiz-adv-x="578" 
d="M466 382c46 -46 72 -107 72 -173v-123c0 -25 -21 -45 -45 -45c-25 0 -45 20 -45 45v123c0 86 -70 155 -155 155c-86 0 -155 -69 -155 -155v-123c0 -25 -21 -45 -45 -45c-25 0 -45 20 -45 45v323c0 25 20 45 45 45c24 0 45 -20 45 -45v-10c43 36 97 55 155 55
c65 0 127 -25 173 -72z" />
    <glyph glyph-name="o" unicode="o" horiz-adv-x="575" 
d="M287 -33c-65 0 -126 26 -172 72s-71 107 -71 172s25 126 71 172s107 71 172 71s127 -25 173 -71s71 -107 71 -172s-25 -126 -71 -172s-108 -72 -173 -72zM287 364c-84 0 -153 -69 -153 -153c0 -85 69 -154 153 -154c85 0 154 69 154 154c0 84 -69 153 -154 153z" />
    <glyph glyph-name="p" unicode="p" horiz-adv-x="589" 
d="M471 383c46 -46 72 -107 72 -172s-26 -126 -72 -172s-107 -71 -172 -71c-56 0 -110 19 -153 54v-147c0 -25 -20 -45 -45 -45s-45 20 -45 45v534c0 25 20 45 45 45s45 -20 45 -45v-9c43 35 97 54 153 54c65 0 126 -25 172 -71zM299 58c85 0 154 68 154 153
s-69 153 -154 153c-84 0 -153 -68 -153 -153s69 -153 153 -153z" />
    <glyph glyph-name="q" unicode="q" horiz-adv-x="585" 
d="M562 -81c25 0 45 -20 45 -45s-20 -45 -45 -45h-76c-25 0 -45 20 -45 45v148c-43 -35 -97 -55 -153 -55c-65 0 -127 26 -173 72c-45 46 -71 107 -71 172s26 126 71 172c46 46 108 71 173 71c56 0 110 -19 153 -54v9c0 25 20 45 45 45s45 -20 45 -45v-490h31zM288 57
c84 0 153 69 153 154c0 84 -69 153 -153 153c-85 0 -154 -69 -154 -153c0 -85 69 -154 154 -154z" />
    <glyph glyph-name="r" unicode="r" horiz-adv-x="381" 
d="M304 454c25 0 45 -20 45 -45s-20 -45 -45 -45c-85 0 -154 -69 -154 -153v-125c0 -25 -20 -45 -45 -45s-45 20 -45 45v323c0 25 20 45 45 45s45 -20 45 -45v-9c43 35 97 54 154 54z" />
    <glyph glyph-name="s" unicode="s" horiz-adv-x="456" 
d="M261 -72h-162c-25 0 -45 21 -45 45c0 25 20 45 45 45h162c32 0 59 27 59 59c0 27 -19 50 -45 57l-116 27c-32 8 -61 27 -81 52c-21 27 -32 59 -32 93c0 82 67 148 148 148h142c25 0 45 -20 45 -45s-20 -45 -45 -45h-142c-32 0 -58 -26 -58 -58c0 -27 18 -51 44 -57
l116 -28c32 -8 61 -26 81 -52c21 -26 33 -59 33 -92c0 -82 -67 -149 -149 -149z" />
    <glyph glyph-name="t" unicode="t" horiz-adv-x="441" 
d="M346 131c25 0 45 -20 45 -45s-20 -45 -45 -45c-114 0 -207 93 -207 207v116h-68c-25 0 -45 21 -45 45c0 25 20 45 45 45h68v167c0 25 20 45 45 45s45 -20 45 -45v-167h117c25 0 45 -20 45 -45c0 -24 -20 -45 -45 -45h-117v-116c0 -65 53 -117 117 -117z" />
    <glyph glyph-name="u" unicode="u" horiz-adv-x="520" 
d="M415 454c24 0 45 -20 45 -45v-323c0 -25 -21 -45 -45 -45c-23 0 -41 16 -45 37c-33 -24 -74 -37 -117 -37c-114 0 -207 92 -207 206v162c0 25 20 45 45 45s45 -20 45 -45v-162c0 -64 52 -116 117 -116c64 0 116 52 116 116c0 2 0 3 1 4v158c0 25 20 45 45 45z" />
    <glyph glyph-name="v" unicode="v" horiz-adv-x="520" 
d="M255 40c-17 0 -32 9 -39 23l-177 324c-12 22 -4 49 18 61s49 4 61 -18l138 -253l147 254c12 21 40 29 62 16c21 -12 28 -40 16 -61l-187 -324c-8 -14 -24 -22 -39 -22z" />
    <glyph glyph-name="w" unicode="w" horiz-adv-x="745" 
d="M515 41c-18 0 -33 10 -41 26l-103 234l-109 -234c-7 -16 -23 -26 -41 -26s-34 10 -41 26l-143 324c-10 23 0 49 23 59s49 0 59 -23l103 -233l110 234c7 16 23 26 41 26s34 -10 41 -27l103 -233l109 234c10 23 37 33 60 22c22 -10 32 -37 21 -60l-151 -323
c-7 -17 -24 -26 -41 -26z" />
    <glyph glyph-name="x" unicode="x" horiz-adv-x="458" 
d="M291 247l121 -131c17 -18 16 -47 -2 -63c-19 -17 -46 -16 -64 2l-116 126l-116 -126c-17 -17 -45 -19 -64 -2c-18 16 -19 45 -3 63l122 131l-122 132c-16 18 -15 47 3 63c18 17 47 16 64 -2l116 -126l116 126c17 18 45 19 64 2c18 -16 19 -45 2 -63z" />
    <glyph glyph-name="y" unicode="y" horiz-adv-x="562" 
d="M522 387l-308 -535c-8 -14 -23 -22 -39 -22c-25 0 -45 21 -45 45c0 8 2 15 6 22l88 152l-185 338c-12 22 -4 50 18 62c22 11 49 3 61 -18l159 -290l167 291c13 21 40 28 62 16c14 -8 22 -23 22 -39c0 -8 -2 -15 -6 -22z" />
    <glyph glyph-name="z" unicode="z" horiz-adv-x="489" 
d="M96 364c-25 0 -45 20 -45 45s20 45 45 45h298c21 -1 34 -11 42 -28c6 -16 2 -37 -9 -47v0l-229 -249h196c25 0 45 -20 45 -45c0 -24 -20 -45 -45 -45h-298c-18 0 -35 11 -42 27c-7 17 -4 36 8 49l229 248h-195z" />
    <glyph glyph-name="A" unicode="A" horiz-adv-x="643" 
d="M605 31c11 -23 1 -49 -22 -60c-22 -10 -49 -1 -60 22l-47 100h-313l-44 -99c-7 -17 -24 -27 -41 -27c-6 0 -12 1 -18 4c-23 10 -33 36 -23 59l236 535c7 16 23 27 41 27s34 -10 41 -26zM203 183h231l-118 255z" />
    <glyph glyph-name="S" unicode="S" horiz-adv-x="466" 
d="M254 -33h-158c-25 0 -45 20 -45 45s20 45 45 45h158c46 0 84 38 84 84c0 39 -26 72 -64 82l-109 26c-38 9 -71 31 -95 61c-25 30 -38 69 -38 108c0 96 78 174 174 174h123c25 0 45 -20 45 -45s-20 -45 -45 -45h-123c-46 0 -84 -38 -84 -84c0 -39 26 -73 64 -82l109 -26
c38 -9 71 -31 95 -61c25 -30 38 -69 38 -108c0 -96 -78 -174 -174 -174z" />
    <glyph glyph-name="quotedbl" unicode="&#x22;" horiz-adv-x="517" 
d="M278 612l-32 -99c-4 -15 -18 -26 -34 -26c-19 0 -35 15 -36 33v0v110v0c0 28 23 52 52 52s53 -24 53 -53c0 -6 -2 -12 -3 -17zM438 612l-32 -99c-4 -15 -18 -26 -34 -26c-19 0 -35 15 -36 33v0v110v0c0 28 23 52 52 52s53 -24 53 -53c0 -6 -2 -12 -3 -17z" />
    <glyph glyph-name="comma" unicode="," horiz-adv-x="220" 
d="M86 -116c-24 7 -38 31 -32 55l21 78c7 24 31 38 55 32c24 -7 38 -31 32 -55l-21 -78c-6 -24 -31 -38 -55 -32z" />
    <glyph glyph-name="hyphen" unicode="-" horiz-adv-x="526" 
d="M469 409c0 -25 -20 -45 -45 -45h-323c-25 0 -45 20 -45 45s20 45 45 45h323c25 0 45 -20 45 -45z" />
    <glyph glyph-name="period" unicode="." horiz-adv-x="236" 
d="M181 12c0 -36 -29 -65 -65 -65s-65 29 -65 65s29 65 65 65s65 -29 65 -65z" />
    <glyph glyph-name="zero" unicode="0" horiz-adv-x="510" 
d="M462 247c0 -114 -93 -207 -207 -207s-207 93 -207 207s93 207 207 207s207 -93 207 -207zM255 130c65 0 117 53 117 117c0 65 -52 117 -117 117c-64 0 -117 -52 -117 -117c0 -64 53 -117 117 -117z" />
    <glyph glyph-name="one" unicode="1" horiz-adv-x="252" 
d="M69 364c-25 0 -45 20 -45 45s20 45 45 45h77c25 0 45 -20 45 -45v-324c0 -24 -20 -45 -45 -45s-45 21 -45 45v279h-32z" />
    <glyph glyph-name="two" unicode="2" horiz-adv-x="484" 
d="M350 -171h-275c-18 0 -34 11 -41 27c-7 17 -4 36 8 49l280 300c17 18 26 41 26 65c0 52 -43 94 -95 94s-94 -42 -94 -94c0 -25 -20 -45 -45 -45s-45 20 -45 45c0 102 83 184 184 184c102 0 185 -82 185 -184c0 -48 -18 -93 -51 -127v0l-208 -224h171c25 0 45 -20 45 -45
s-20 -45 -45 -45z" />
    <glyph glyph-name="three" unicode="3" horiz-adv-x="475" 
d="M235 -247c-29 0 -56 6 -82 17s-48 27 -67 46c-38 39 -58 91 -58 145c0 24 20 45 45 45c24 0 45 -21 45 -45c0 -31 11 -60 33 -82c22 -23 52 -36 84 -36c65 0 118 53 118 118c0 64 -53 117 -118 117c-25 0 -45 20 -45 45s20 45 45 45c54 0 98 44 98 98s-44 98 -98 98
c-25 0 -45 20 -45 45s20 45 45 45c104 0 188 -84 188 -188c0 -56 -24 -106 -63 -140c50 -38 83 -98 83 -165c0 -115 -94 -208 -208 -208z" />
    <glyph glyph-name="four" unicode="4" horiz-adv-x="595" 
d="M504 269c25 0 45 -20 45 -45s-20 -45 -45 -45h-45v-93c0 -25 -20 -45 -45 -45s-45 20 -45 45v93h-208h-70c-18 0 -34 10 -41 26c-7 15 -5 34 6 48l323 397c12 14 32 20 50 14c18 -7 30 -24 30 -43v-352h45zM185 269h184v226z" />
    <glyph glyph-name="five" unicode="5" horiz-adv-x="453" 
d="M197 -171c-48 0 -95 17 -132 48c-19 16 -22 44 -6 63c16 20 45 22 64 6c22 -18 50 -28 79 -27c29 2 57 14 78 34c39 40 46 103 14 148c-34 47 -78 50 -132 63c-32 8 -61 26 -81 52c-21 26 -32 59 -32 92v101c0 25 20 45 45 45h171c25 0 45 -20 45 -45s-20 -45 -45 -45
h-126v-56c0 -27 18 -50 44 -56c59 -17 115 -25 160 -70c80 -80 82 -213 0 -292c-41 -40 -93 -61 -146 -61z" />
    <glyph glyph-name="six" unicode="6" horiz-adv-x="583" 
d="M464 457c46 -46 71 -107 71 -172c0 -66 -25 -127 -71 -173s-107 -71 -172 -71s-127 25 -173 71s-71 107 -71 173c0 45 12 86 36 127l176 305c12 21 40 29 61 16c15 -8 23 -23 23 -39c0 -7 -2 -15 -6 -22l-85 -147c13 2 26 3 39 3c65 0 126 -25 172 -71zM292 131
c84 0 153 69 153 154c0 84 -69 153 -153 153c-85 0 -154 -69 -154 -153c0 -85 69 -154 154 -154z" />
    <glyph glyph-name="seven" unicode="7" horiz-adv-x="482" 
d="M427 389l-249 -534c-11 -22 -38 -33 -60 -22s-32 38 -22 60l220 471h-223c-25 0 -45 20 -45 45s20 45 45 45h293c16 0 31 -8 39 -21v0c9 -14 8 -31 2 -44z" />
    <glyph glyph-name="eight" unicode="8" horiz-adv-x="519" 
d="M384 413c50 -38 82 -98 82 -165c0 -114 -93 -207 -207 -207s-207 93 -207 207c0 67 32 127 82 165c-38 34 -62 84 -62 139c0 103 84 187 187 187s187 -84 187 -187c0 -55 -24 -105 -62 -139zM162 552c0 -54 43 -97 97 -97s97 43 97 97s-43 97 -97 97s-97 -43 -97 -97z
M259 131c64 0 117 52 117 117c0 64 -53 117 -117 117s-117 -53 -117 -117c0 -65 53 -117 117 -117z" />
    <glyph glyph-name="nine" unicode="9" horiz-adv-x="587" 
d="M530 346c17 -63 8 -129 -24 -186l-180 -311c-8 -14 -24 -22 -39 -22c-34 0 -56 37 -39 67l85 147c-13 -2 -27 -3 -40 -3c-42 0 -84 11 -122 33c-57 33 -97 85 -114 149c-17 63 -8 129 24 185c33 57 86 98 149 115s129 8 186 -25s97 -85 114 -149zM216 149
c72 -42 171 -18 212 56c61 101 -18 233 -134 233c-56 0 -107 -29 -135 -78c-42 -74 -17 -169 57 -211z" />
    <glyph glyph-name="d" unicode="d" horiz-adv-x="567" 
d="M482 666c25 0 45 -21 45 -45v-609c0 -25 -20 -45 -45 -45s-45 20 -45 45v10c-43 -35 -97 -54 -153 -54c-65 0 -126 25 -172 71s-72 107 -72 172s26 126 72 172s107 71 172 71c56 0 110 -19 153 -54v221c0 24 20 45 45 45zM284 58c84 0 153 68 153 153s-69 153 -153 153
c-85 0 -154 -68 -154 -153s69 -153 154 -153z" />
    <glyph glyph-name="daggerdbl" unicode="&#x2021;" horiz-adv-x="715" 
d="M613 451c6 0 11 -5 11 -11s-5 -11 -11 -11c-5 0 -9 2 -10 7c-70 14 -105 -60 -158 -100c-15 -12 -44 -14 -51 -5s0 22 0 22c-9 -4 -21 -1 -21 -1s-2 -9 -15 -9c-14 0 -16 9 -16 9s-12 -3 -21 1c0 0 7 -13 0 -22s-36 -7 -51 5c-53 40 -88 114 -158 100c-1 -5 -4 -7 -10 -7
s-11 5 -11 11s5 11 11 11c5 0 9 -3 10 -8c62 0 16 37 -7 60c-6 0 -15 1 -15 10c0 6 5 11 11 11s11 -5 11 -11c0 -2 0 -4 -2 -6c14 -11 38 -43 56 -37c13 4 7 29 5 39c-5 1 -8 5 -8 10c0 6 4 11 10 11s11 -5 11 -11c0 -5 -3 -9 -7 -10l7 -29s5 8 16 8c9 0 27 -5 51 -19
c-5 12 -13 32 -13 49c0 23 18 58 31 89c-19 -4 -56 -28 -58 -3c1 16 -13 102 -61 111c-2 -4 -6 -6 -10 -6c-7 0 -13 6 -13 12c0 7 6 13 13 13c6 0 11 -5 12 -12c13 -3 38 -16 49 -8c8 6 -7 42 -13 59h-2c-7 0 -12 5 -12 12s5 12 12 12s12 -5 12 -12c0 -4 -1 -7 -4 -9
c7 -14 22 -67 36 -67c11 0 19 27 24 35c-3 2 -4 5 -4 9c0 6 5 12 12 12s12 -6 12 -12c0 -8 -7 -15 -15 -12c-13 -16 -20 -68 15 -59c0 7 6 12 12 12c3 0 4 0 6 -1c2 14 4 27 4 34c-7 4 -11 12 -11 21c0 14 11 25 25 25c10 0 25 36 48 36c20 0 40 -36 47 -36
c14 0 25 -11 25 -25c0 -9 -4 -17 -11 -21c0 -7 2 -20 4 -34c2 1 4 1 6 1c6 0 12 -5 12 -12c35 -11 29 43 15 59c-8 -3 -15 4 -15 12c0 6 5 12 12 12s12 -6 12 -12c0 -4 -1 -7 -4 -9c5 -8 13 -35 24 -35c14 0 29 53 36 67c-3 2 -4 5 -4 9c0 7 5 12 12 12s12 -5 12 -12
s-5 -12 -12 -12h-2c-6 -17 -21 -53 -13 -59c11 -8 36 5 49 8c1 7 6 12 12 12c7 0 13 -6 13 -13c0 -6 -6 -12 -13 -12c-4 0 -8 2 -10 6c-50 -12 -61 -94 -60 -111c-2 -25 -39 -1 -59 3c13 -31 31 -66 31 -89c0 -17 -8 -37 -13 -49c24 14 43 19 51 19c11 0 16 -8 16 -8l7 29
c-4 1 -7 5 -7 10c0 6 5 11 11 11s11 -5 11 -11c0 -5 -4 -9 -9 -10c-2 -10 -8 -36 5 -39c18 -4 42 25 56 37c-2 2 -2 4 -2 6c0 6 5 11 11 11s11 -5 11 -11s-5 -10 -11 -10h-4c-18 -18 -60 -51 -29 -57c7 -1 16 -2 22 -3c1 5 5 8 10 8zM440 677c-2 -4 -11 -7 -13 -7
c0 -4 1 -8 2 -12l46 -25c6 9 -15 42 -35 44zM240 633l46 25c1 4 2 8 2 12c-5 0 -10 1 -13 7c-20 -2 -41 -35 -35 -44z" />
    <glyph glyph-name="B" unicode="B" horiz-adv-x="536" 
d="M309 -33h-208c-25 0 -45 20 -45 45v535c0 25 20 45 45 45h179c98 0 178 -80 178 -179c0 -46 -18 -88 -47 -120c47 -33 77 -86 77 -147c0 -99 -80 -179 -179 -179zM146 235v-178h163c49 0 89 40 89 89s-40 89 -89 89h-163zM146 502v-177h134c49 0 88 40 88 88
c0 49 -39 89 -88 89h-134z" />
    <glyph glyph-name="grave" unicode="`" horiz-adv-x="562" 
d="M355 586c-3 0 -6 1 -10 2l-149 55c-15 5 -23 23 -18 38c6 16 23 24 39 18l149 -55c31 -10 22 -58 -11 -58z" />
    <glyph glyph-name="acute" unicode="&#xb4;" horiz-adv-x="561" 
d="M206 586c-32 0 -42 49 -10 58l149 55c15 6 32 -2 38 -18c6 -15 -2 -33 -18 -38l-149 -55c-3 -1 -7 -2 -10 -2z" />
    <glyph glyph-name="C" unicode="C" horiz-adv-x="615" 
d="M354 -33c-42 0 -83 8 -121 25c-76 30 -135 92 -167 166c-16 38 -24 79 -24 121c0 43 8 83 24 122c32 74 92 136 167 166c38 17 79 25 121 25c75 0 147 -27 204 -76c19 -16 21 -44 5 -63c-17 -19 -45 -21 -64 -5c-40 35 -92 54 -145 54c-59 0 -115 -23 -157 -65
s-65 -98 -65 -158c0 -59 23 -115 65 -157s98 -65 157 -65c53 0 105 19 145 54c19 16 47 14 64 -5c16 -19 14 -47 -5 -64c-57 -48 -129 -75 -204 -75z" />
    <glyph glyph-name="D" unicode="D" horiz-adv-x="604" 
d="M532 401c16 -38 24 -79 24 -121s-8 -83 -24 -122c-16 -37 -39 -70 -67 -99c-29 -29 -62 -51 -100 -67s-79 -25 -121 -25h-143c-25 0 -45 20 -45 45v535c0 25 20 45 45 45h143c42 0 83 -8 121 -24s71 -39 100 -67c28 -29 51 -62 67 -100zM401 122c42 42 65 98 65 158
c0 59 -23 115 -65 157s-98 65 -157 65h-98v-445h98c59 0 115 23 157 65z" />
    <glyph glyph-name="E" unicode="E" horiz-adv-x="465" 
d="M382 57c24 0 45 -20 45 -45s-21 -45 -45 -45h-298c-25 0 -45 20 -45 45v535c0 25 20 45 45 45h298c24 0 45 -20 45 -45s-21 -45 -45 -45h-253v-177h163c24 0 45 -21 45 -45c0 -25 -21 -45 -45 -45h-163v-178h253z" />
    <glyph glyph-name="F" unicode="F" horiz-adv-x="475" 
d="M386 592c25 0 45 -20 45 -45s-20 -45 -45 -45h-240v-177h163c25 0 45 -21 45 -45c0 -25 -20 -45 -45 -45h-163v-223c0 -25 -20 -45 -45 -45s-45 20 -45 45v535c0 25 20 45 45 45h285z" />
    <glyph glyph-name="G" unicode="G" horiz-adv-x="618" 
d="M354 -33c-82 0 -163 34 -221 91c-28 29 -51 63 -67 100c-16 38 -24 79 -24 121c0 43 8 83 24 122c32 74 92 136 167 166c38 17 79 25 121 25c75 0 147 -27 204 -76c19 -16 21 -44 5 -63c-17 -19 -45 -21 -64 -5c-40 35 -92 54 -145 54c-59 0 -115 -23 -157 -65
s-65 -98 -65 -158c0 -59 23 -115 65 -157s98 -65 157 -65c47 0 92 15 130 41v122c0 25 20 45 45 45c24 0 45 -20 45 -45v-143c0 -14 -6 -26 -16 -35c-57 -48 -129 -75 -204 -75z" />
    <glyph glyph-name="H" unicode="H" horiz-adv-x="598" 
d="M497 592c25 0 45 -20 45 -45v-535c0 -25 -20 -45 -45 -45s-45 20 -45 45v223h-306v-223c0 -25 -20 -45 -45 -45s-45 20 -45 45v535c0 25 20 45 45 45s45 -20 45 -45v-222h306v222c0 25 20 45 45 45z" />
    <glyph glyph-name="I" unicode="I" horiz-adv-x="347" 
d="M250 57c25 0 45 -20 45 -45s-20 -45 -45 -45h-153c-25 0 -45 20 -45 45s20 45 45 45h31v445h-31c-25 0 -45 20 -45 45s20 45 45 45h153c25 0 45 -20 45 -45s-20 -45 -45 -45h-32v-445h32z" />
    <glyph glyph-name="colon" unicode=":" horiz-adv-x="284" 
d="M206 408c0 -36 -30 -65 -66 -65s-65 29 -65 65s29 66 65 66s66 -30 66 -66zM206 85c0 -36 -30 -66 -66 -66s-65 30 -65 66s29 65 65 65s66 -29 66 -65z" />
    <glyph glyph-name="semicolon" unicode=";" horiz-adv-x="281" 
d="M108 -16c-24 6 -38 31 -31 55l20 78c7 24 32 38 56 32c24 -7 38 -32 31 -56l-20 -77c-7 -24 -32 -38 -56 -32zM206 408c0 -36 -29 -65 -65 -65c-37 0 -66 29 -66 65s29 66 66 66c36 0 65 -30 65 -66z" />
    <glyph glyph-name="a" unicode="a" 
d="M548 40c15 -16 15 -41 -1 -56c-8 -8 -18 -12 -28 -12c-11 0 -21 5 -29 13c-15 15 -25 33 -32 52c-46 -45 -106 -70 -170 -70c-66 0 -127 26 -173 72s-71 107 -71 172s25 126 71 172s107 71 173 71c61 0 118 -22 163 -63v18c0 22 18 40 40 40s40 -18 40 -40v-328
c0 -15 6 -30 17 -41zM288 57c84 0 153 69 153 154c0 84 -69 153 -153 153c-85 0 -154 -69 -154 -153c0 -85 69 -154 154 -154z" />
    <glyph glyph-name="b" unicode="b" horiz-adv-x="573" 
d="M464 383c45 -46 71 -107 71 -172s-26 -126 -71 -172c-46 -46 -108 -72 -173 -72s-126 26 -172 72s-71 107 -71 172v410c0 24 20 45 45 45s45 -21 45 -45v-221c43 35 97 54 153 54c65 0 127 -25 173 -71zM291 57c85 0 154 69 154 154c0 84 -69 153 -154 153
c-84 0 -153 -69 -153 -153c0 -85 69 -154 153 -154z" />
    <glyph glyph-name="c" unicode="c" horiz-adv-x="515" 
d="M287 -32c-65 0 -126 25 -172 71s-71 107 -71 172s25 126 71 172s107 71 172 71s126 -25 172 -71c18 -18 19 -47 1 -65c-17 -17 -47 -16 -64 1c-60 60 -157 60 -217 0c-29 -29 -45 -67 -45 -108s16 -80 45 -109c29 -28 67 -44 108 -44s80 16 109 44c17 18 47 19 64 1
c18 -17 17 -47 -1 -64c-46 -46 -107 -71 -172 -71z" />
    <glyph glyph-name="J" unicode="J" horiz-adv-x="544" 
d="M235 -92c-66 0 -127 26 -174 72c-17 18 -17 46 0 64c18 17 46 17 64 0c29 -29 68 -46 110 -46c41 0 80 17 109 46s46 68 46 109v349h-32c-25 0 -45 20 -45 45s20 45 45 45h77c24 0 45 -20 45 -45v-394c0 -65 -26 -127 -72 -173s-108 -72 -173 -72z" />
    <glyph glyph-name="K" unicode="K" horiz-adv-x="691" 
d="M629 52c42 -23 24 -85 -22 -85c-7 0 -14 2 -21 5l-380 203h-50v-163c0 -25 -20 -45 -45 -45s-45 20 -45 45v535c0 25 20 45 45 45s45 -20 45 -45v-282h45l377 316c19 16 47 14 63 -5s13 -48 -6 -64l-338 -284z" />
    <glyph glyph-name="L" unicode="L" horiz-adv-x="482" 
d="M398 -33h-287c-24 0 -45 20 -45 45v535c0 25 21 45 45 45c25 0 45 -20 45 -45v-490h242c25 0 45 -20 45 -45s-20 -45 -45 -45z" />
    <glyph glyph-name="O" unicode="O" horiz-adv-x="708" 
d="M354 -34c-83 0 -162 32 -221 91c-28 29 -51 62 -67 99c-16 39 -24 80 -24 122s8 83 24 121c16 37 39 71 67 99c59 59 138 92 221 92s163 -34 221 -92c28 -28 51 -62 67 -99c16 -38 24 -79 24 -121s-8 -83 -24 -122c-16 -37 -39 -70 -67 -99c-58 -58 -138 -91 -221 -91z
M354 500c-59 0 -115 -23 -157 -65s-65 -98 -65 -157c0 -60 23 -115 65 -157s98 -65 157 -65s115 23 157 65s65 97 65 157c0 59 -23 115 -65 157s-98 65 -157 65z" />
    <glyph glyph-name="Q" unicode="Q" horiz-adv-x="708" 
d="M642 399c16 -38 24 -79 24 -121s-8 -83 -24 -122c-16 -37 -39 -70 -67 -99c-47 -47 -109 -78 -176 -88v-8c0 -13 11 -23 24 -23c25 0 45 -21 45 -45c0 -25 -20 -45 -45 -45c-63 0 -114 51 -114 113v8c-66 9 -128 40 -176 88c-28 29 -51 62 -67 99c-16 39 -24 80 -24 122
s8 83 24 121c16 37 39 71 67 99c59 59 138 92 221 92s163 -34 221 -92c28 -28 51 -62 67 -99zM511 121c42 42 65 97 65 157c0 59 -23 115 -65 157s-98 65 -157 65s-115 -23 -157 -65s-65 -98 -65 -157c0 -60 23 -115 65 -157s98 -65 157 -65s115 23 157 65z" />
    <glyph glyph-name="W" unicode="W" horiz-adv-x="1133" 
d="M1075 587c19 -7 32 -36 20 -59l-250 -537c-8 -16 -24 -26 -41 -26c-16 0 -35 12 -41 27v0l-197 446l-209 -447c-7 -16 -24 -26 -41 -26c-16 0 -34 12 -41 27v0l-237 536c-10 23 0 50 23 60s49 0 60 -23l197 -446l208 447c17 33 66 34 82 -1v0l197 -446l209 447
c10 22 39 32 61 21z" />
    <glyph glyph-name="V" unicode="V" horiz-adv-x="739" 
d="M359 -34c-23 0 -34 10 -42 24l-292 535c-12 22 -4 49 18 61c21 12 49 4 61 -18l254 -464l268 465c13 22 40 29 62 17c21 -13 29 -40 16 -62l-308 -535c-9 -13 -14 -23 -37 -23z" />
    <glyph glyph-name="X" unicode="X" horiz-adv-x="651" 
d="M387 279l219 -237c25 -28 5 -75 -33 -75c-13 0 -25 5 -34 14l-213 232l-214 -232c-9 -9 -21 -14 -33 -14c-39 0 -59 47 -33 75l219 237l-219 237c-17 19 -16 47 3 64c18 17 46 16 63 -3l214 -231l213 231c17 19 46 20 64 3s19 -45 3 -64z" />
    <glyph glyph-name="exclam" unicode="!" horiz-adv-x="237" 
d="M116 180c-25 0 -45 20 -45 45v350c0 25 20 45 45 45s45 -20 45 -45v-350c0 -25 -20 -45 -45 -45zM51 32c0 37 29 66 65 66s66 -29 66 -66c0 -36 -30 -65 -66 -65s-65 29 -65 65z" />
    <glyph glyph-name="question" unicode="?" horiz-adv-x="499" 
d="M229 154c-25 0 -45 20 -45 45c0 33 13 65 37 88c26 26 75 31 102 59c20 20 31 47 31 75c0 59 -47 107 -106 107s-107 -48 -107 -107c0 -24 -20 -45 -45 -45s-45 21 -45 45c0 107 90 197 197 197c109 0 196 -90 196 -197c0 -52 -20 -101 -57 -138c-22 -22 -54 -41 -84 -50
c-19 -6 -27 -17 -29 -34c-3 -25 -20 -45 -45 -45zM167 32c0 37 30 66 66 66s65 -29 65 -66c0 -36 -29 -65 -65 -65s-66 29 -66 65z" />
    <glyph glyph-name="Y" unicode="Y" horiz-adv-x="606" 
d="M551 585c21 -14 27 -42 14 -62l-217 -337v-174c0 -25 -20 -45 -45 -45s-45 20 -45 45v174l-217 337c-14 20 -8 48 13 62c21 13 49 7 63 -14l186 -289l186 289c13 21 41 27 62 14z" />
    <glyph glyph-name="T" unicode="T" horiz-adv-x="537" 
d="M458 592c25 0 45 -20 45 -45s-20 -45 -45 -45h-145v-489c0 -25 -20 -45 -45 -45s-45 20 -45 45v489h-145c-25 0 -45 20 -45 45s20 45 45 45h380z" />
    <glyph glyph-name="U" unicode="U" horiz-adv-x="583" 
d="M292 -32c-65 0 -126 25 -172 71s-72 107 -72 172v336c0 24 20 45 45 45s45 -21 45 -45v-336c0 -85 69 -153 154 -153c84 0 153 68 153 153v336c0 24 20 45 45 45s45 -21 45 -45v-336c0 -65 -25 -126 -71 -172s-107 -71 -172 -71z" />
    <glyph glyph-name="Z" unicode="Z" 
d="M510 -33h-414c-38 0 -58 44 -35 73l357 462h-322c-25 0 -45 20 -45 45s20 45 45 45h414c38 0 57 -44 36 -73l-358 -462h322c25 0 45 -20 45 -45s-20 -45 -45 -45z" />
    <glyph glyph-name="P" unicode="P" horiz-adv-x="515" 
d="M101 -32c-24 0 -45 20 -45 45v534c0 25 21 45 45 45h190c98 0 178 -80 178 -178c0 -99 -80 -179 -178 -179h-145v-222c0 -25 -20 -45 -45 -45zM146 502v-177h145c49 0 88 40 88 89c0 48 -39 88 -88 88h-145z" />
    <glyph glyph-name="R" unicode="R" horiz-adv-x="515" 
d="M464 33c15 -31 -5 -65 -40 -65c-17 0 -32 9 -40 25l-121 242h-117v-222c0 -25 -20 -45 -45 -45s-45 20 -45 45v534c0 25 20 45 45 45h190c98 0 178 -80 178 -178c0 -75 -46 -140 -112 -166zM146 502v-177h149c47 3 84 41 84 89s-40 88 -88 88h-145z" />
    <glyph glyph-name="M" unicode="M" horiz-adv-x="825" 
d="M714 -33c-25 0 -45 21 -45 45v376l-219 -354c-8 -14 -23 -22 -38 -22c-16 0 -30 8 -39 22l-219 354v-376c0 -24 -20 -45 -45 -45c-24 0 -45 21 -45 45v534c0 20 14 38 33 44c20 5 40 -3 51 -20l264 -427l263 427c11 17 32 25 51 20c19 -6 33 -24 33 -44v-534
c0 -24 -20 -45 -45 -45z" />
    <glyph glyph-name="N" unicode="N" horiz-adv-x="606" 
d="M495 -33c-14 0 -28 7 -36 19l-305 422v-396c0 -25 -20 -45 -45 -45s-45 20 -45 45v535c0 19 12 36 31 42c18 6 39 0 50 -16l305 -422v396c0 25 20 45 45 45s45 -20 45 -45v-535c0 -20 -12 -37 -31 -43c-4 -1 -9 -2 -14 -2z" />
    <glyph glyph-name="circumflex" unicode="&#x2c6;" horiz-adv-x="612" 
d="M306 705c5 0 10 -1 15 -3l99 -55c15 -8 20 -26 12 -41c-8 -14 -26 -19 -40 -11l-86 46l-86 -46c-14 -8 -32 -3 -40 11c-8 15 -3 33 12 41l100 55c4 2 9 3 14 3z" />
    <glyph glyph-name="cedilla" unicode="&#xb8;" horiz-adv-x="462" 
d="M206 -170c-17 0 -30 14 -30 30c0 17 13 30 30 30c11 0 20 9 20 20s-9 20 -20 20c-17 0 -30 14 -30 30v51c0 17 13 30 30 30c16 0 30 -13 30 -30v-26c29 -12 50 -41 50 -75c0 -44 -36 -80 -80 -80z" />
    <glyph glyph-name="at" unicode="@" horiz-adv-x="1130" 
d="M1006 466c25 -59 38 -122 38 -186c0 -89 -20 -169 -56 -225c-24 -38 -60 -64 -100 -72c-69 -14 -132 23 -162 86c-4 8 -7 15 -9 23c-46 -43 -105 -67 -169 -67c-65 0 -127 26 -173 72s-72 108 -72 173s26 127 72 173c46 47 108 72 173 72c60 0 116 -21 161 -60v15
c0 25 20 45 45 45s45 -20 45 -45v-331c0 -28 27 -74 70 -68c17 2 32 15 43 32c27 42 42 106 42 177c0 104 -40 201 -114 275c-73 73 -171 114 -275 114s-201 -41 -275 -114c-73 -74 -114 -171 -114 -275s41 -202 114 -275c74 -74 171 -114 275 -114c63 0 123 14 179 43
c22 12 49 3 61 -19c11 -22 2 -49 -20 -61c-67 -35 -143 -53 -220 -53c-124 0 -251 51 -338 140c-44 44 -79 95 -103 152c-25 59 -38 122 -38 187c0 64 13 127 38 186c24 57 59 109 103 152c43 44 95 79 152 103c59 25 122 38 186 38c128 0 249 -51 339 -141
c44 -43 78 -95 102 -152zM548 115c86 0 155 70 155 155s-69 155 -155 155c-85 0 -155 -70 -155 -155s70 -155 155 -155z" />
    <glyph glyph-name="quotesingle" unicode="'" horiz-adv-x="357" 
d="M278 612l-32 -99c-4 -15 -18 -26 -34 -26c-19 0 -35 15 -36 33v0v110v0c0 28 23 52 52 52s53 -24 53 -53c0 -6 -2 -12 -3 -17z" />
    <glyph glyph-name="quotedblright" unicode="&#x201d;" horiz-adv-x="578" 
d="M270 629c0 -4 -1 -10 -2 -15c-2 -9 -11 -40 -27 -68c-8 -16 -19 -34 -32 -47v0c-7 -8 -16 -12 -27 -12c-20 0 -36 16 -36 36c0 5 1 11 3 16v0s8 18 13 38c4 20 4 45 4 51v1v0v0v0c0 29 23 52 52 52s52 -24 52 -52zM432 629c0 -4 -1 -10 -2 -15c-2 -9 -11 -40 -27 -68
c-8 -16 -19 -34 -32 -47v0c-7 -8 -16 -12 -27 -12c-20 0 -36 16 -36 36c0 5 1 11 3 16v0s8 18 13 38c4 20 4 45 4 51v1v0v0v0c0 29 23 52 52 52s52 -24 52 -52z" />
    <glyph glyph-name="quoteright" unicode="&#x2019;" horiz-adv-x="416" 
d="M270 629c-1 -30 -32 -99 -61 -130v0c-7 -8 -16 -12 -27 -12c-20 0 -36 16 -36 36c0 5 1 11 3 16v0s8 18 13 38c4 20 4 45 4 51v1v0v0v0c0 29 23 52 52 52s52 -24 52 -52z" />
    <glyph glyph-name="quoteleft" unicode="&#x2018;" horiz-adv-x="416" 
d="M146 539c0 4 1 10 2 15c5 21 33 84 59 115v0c7 8 16 12 27 12c20 0 36 -16 36 -36c0 -5 -1 -11 -3 -16v0s-8 -18 -13 -38c-4 -20 -4 -45 -4 -51v-1v0v0v0c0 -29 -23 -52 -52 -52s-52 24 -52 52z" />
    <glyph glyph-name="quotedblleft" unicode="&#x201c;" horiz-adv-x="578" 
d="M308 539c0 4 1 10 2 15c2 9 11 40 27 68c8 16 19 34 32 47v0c7 8 16 12 27 12c20 0 36 -16 36 -36c0 -5 -1 -11 -3 -16v0s-8 -18 -13 -38c-4 -20 -4 -45 -4 -51v-1v0v0v0c0 -29 -23 -52 -52 -52s-52 24 -52 52zM146 539c0 4 1 10 2 15c2 9 11 40 27 68c8 16 19 34 32 47
v0c7 8 16 12 27 12c20 0 36 -16 36 -36c0 -5 -1 -11 -3 -16v0s-8 -18 -13 -38c-4 -20 -4 -45 -4 -51v-1v0v0v0c0 -29 -23 -52 -52 -52s-52 24 -52 52z" />
    <glyph glyph-name="parenleft" unicode="(" horiz-adv-x="370" 
d="M209 -69c-14 0 -28 7 -37 19c-62 89 -96 206 -96 330c0 123 34 240 96 329c14 20 43 25 63 11s25 -42 11 -62c-51 -75 -80 -173 -80 -278c0 -106 29 -204 80 -278c14 -21 9 -49 -11 -63c-8 -5 -17 -8 -26 -8z" />
    <glyph glyph-name="bracketleft" unicode="[" horiz-adv-x="389" 
d="M228 -70h-107c-25 0 -45 21 -45 45v609c0 25 20 45 45 45h107c25 0 45 -20 45 -45s-20 -45 -45 -45h-62v-519h62c25 0 45 -20 45 -45c0 -24 -20 -45 -45 -45z" />
    <glyph glyph-name="bracketright" unicode="]" horiz-adv-x="389" 
d="M268 -70h-107c-25 0 -45 21 -45 45c0 25 20 45 45 45h62v519h-62c-25 0 -45 20 -45 45s20 45 45 45h107c25 0 45 -20 45 -45v-609c0 -24 -20 -45 -45 -45z" />
    <glyph glyph-name="parenright" unicode=")" horiz-adv-x="370" 
d="M161 -69c-9 0 -18 3 -26 8c-20 14 -25 42 -11 63c51 74 80 172 80 278c0 105 -29 203 -80 278c-14 20 -9 48 11 62s49 9 63 -11c62 -89 96 -206 96 -329c0 -124 -34 -241 -96 -330c-9 -12 -23 -19 -37 -19z" />
    <glyph glyph-name="braceleft" unicode="{" horiz-adv-x="425" 
d="M292 10c19 -16 22 -44 7 -64c-9 -11 -22 -17 -35 -17c-10 0 -20 4 -28 10c-54 43 -83 109 -83 192v54c0 12 -4 26 -10 36c-8 11 -15 13 -22 13c-24 0 -45 20 -45 45c0 24 21 45 45 45c7 0 14 1 22 12c6 10 10 24 10 36v54c0 83 29 149 83 192c19 15 47 12 63 -7
c15 -20 12 -48 -7 -63c-32 -26 -49 -67 -49 -122v-54c0 -33 -11 -67 -31 -93c20 -27 31 -61 31 -94v-54c0 -55 17 -96 49 -121z" />
    <glyph glyph-name="braceright" unicode="}" horiz-adv-x="425" 
d="M133 10c32 25 49 66 49 121v54c0 33 11 67 31 94c-20 26 -31 60 -31 93v54c0 55 -17 96 -49 122c-19 15 -22 43 -7 63c16 19 44 22 63 7c54 -43 83 -109 83 -192v-54c0 -12 4 -26 10 -36c8 -11 15 -12 22 -12c24 0 45 -21 45 -45c0 -25 -21 -45 -45 -45
c-7 0 -14 -2 -22 -13c-6 -10 -10 -24 -10 -36v-54c0 -83 -29 -149 -83 -192c-8 -6 -18 -10 -28 -10c-13 0 -26 6 -35 17c-15 20 -12 48 7 64z" />
    <glyph glyph-name="quotedblbase" unicode="&#x201e;" horiz-adv-x="578" 
d="M270 2c0 -4 -1 -10 -2 -15c-2 -9 -11 -40 -27 -68c-8 -16 -19 -34 -32 -47v0c-7 -8 -16 -12 -27 -12c-20 0 -36 16 -36 36c0 5 1 11 3 16v0s8 18 13 38c4 20 4 45 4 51v1v0v0v0c0 29 23 52 52 52s52 -24 52 -52zM432 2c0 -4 -1 -10 -2 -15c-2 -9 -11 -40 -27 -68
c-8 -16 -19 -34 -32 -47v0c-7 -8 -16 -12 -27 -12c-20 0 -36 16 -36 36c0 5 1 11 3 16v0s8 18 13 38c4 20 4 45 4 51v1v0v0v0c0 29 23 52 52 52s52 -24 52 -52z" />
    <glyph glyph-name="quotesinglbase" unicode="&#x201a;" horiz-adv-x="416" 
d="M270 -2c0 -4 -1 -10 -2 -15c-2 -9 -11 -40 -27 -68c-8 -16 -19 -34 -32 -47v0c-7 -8 -16 -12 -27 -12c-20 0 -36 16 -36 36c0 5 1 11 3 16v0s8 18 13 38c4 20 4 45 4 51v1v0v0v0c0 29 23 52 52 52s52 -24 52 -52z" />
    <glyph glyph-name="asciitilde" unicode="~" horiz-adv-x="893" 
d="M430 367c-86 33 -154 31 -196 24s-63 -20 -65 -21c-21 -12 -49 -6 -62 15c-13 22 -6 49 15 62c5 4 137 82 341 4v0c86 -33 154 -32 196 -24c42 7 65 20 65 20c22 13 49 6 62 -15s6 -49 -15 -62c-5 -3 -137 -81 -341 -3z" />
    <glyph glyph-name="florin" unicode="&#x192;" horiz-adv-x="429" 
d="M362 454c25 0 45 -21 45 -45c0 -25 -20 -45 -45 -45h-117v-417c0 -67 -54 -121 -121 -121c-25 0 -45 20 -45 45s20 45 45 45c17 0 31 14 31 31v417h-68c-25 0 -45 20 -45 45c0 24 20 45 45 45h68v101c0 115 93 207 207 207c25 0 45 -20 45 -45s-20 -45 -45 -45
c-64 0 -117 -52 -117 -117v-101h117z" />
    <glyph glyph-name="plus" unicode="+" horiz-adv-x="605" 
d="M500 454c25 0 45 -20 45 -45c0 -24 -20 -45 -45 -45h-153v-152c0 -25 -20 -45 -45 -45s-45 20 -45 45v152h-152c-25 0 -45 21 -45 45c0 25 20 45 45 45h152v153c0 25 20 45 45 45s45 -20 45 -45v-153h153z" />
    <glyph glyph-name="multiply" unicode="&#xd7;" horiz-adv-x="600" 
d="M472 301c17 -17 17 -46 0 -63c-18 -18 -46 -18 -64 0l-108 108l-108 -108c-17 -18 -46 -18 -63 0c-18 17 -18 46 0 63l108 108l-108 109c-18 17 -18 46 0 63c17 18 46 18 63 0l108 -108l108 108c18 18 46 18 64 0c17 -17 17 -46 0 -63l-108 -109z" />
    <glyph glyph-name="plusminus" unicode="&#xb1;" horiz-adv-x="615" 
d="M500 454c25 0 45 -20 45 -45c0 -24 -20 -45 -45 -45h-153v-152c0 -25 -20 -45 -45 -45s-45 20 -45 45v152h-152c-25 0 -45 21 -45 45c0 25 20 45 45 45h152v153c0 25 20 45 45 45s45 -20 45 -45v-153h153zM510 116c25 0 45 -20 45 -45c0 -24 -20 -45 -45 -45h-395
c-25 0 -45 21 -45 45c0 25 20 45 45 45h395z" />
    <glyph glyph-name="questiondown" unicode="&#xbf;" horiz-adv-x="498" 
d="M266 268c25 0 45 -20 45 -45c0 -55 -38 -105 -93 -120c-16 -4 -35 -15 -46 -27c-20 -20 -31 -46 -31 -75c0 -58 48 -106 106 -106s106 48 106 106c0 25 21 45 45 45c25 0 45 -20 45 -45c0 -52 -20 -102 -57 -139s-86 -57 -139 -57c-52 0 -102 20 -139 57s-57 87 -57 139
c0 53 20 102 57 139c22 22 54 41 84 50c19 6 29 17 29 33c0 25 20 45 45 45zM327 393c0 -37 -29 -66 -65 -66s-66 29 -66 66c0 36 30 65 66 65s65 -29 65 -65z" />
    <glyph glyph-name="ellipsis" unicode="&#x2026;" horiz-adv-x="628" 
d="M181 409c0 -36 -29 -65 -65 -65s-65 29 -65 65s29 65 65 65s65 -29 65 -65zM377 409c0 -36 -29 -65 -65 -65s-65 29 -65 65s29 65 65 65s65 -29 65 -65zM573 409c0 -36 -29 -65 -65 -65s-65 29 -65 65s29 65 65 65s65 -29 65 -65z" />
    <glyph glyph-name="equal" unicode="=" horiz-adv-x="685" 
d="M500 454c25 0 45 -20 45 -45c0 -24 -20 -45 -45 -45h-315c-25 0 -45 21 -45 45c0 25 20 45 45 45h315zM500 264c25 0 45 -20 45 -45c0 -24 -20 -45 -45 -45h-315c-25 0 -45 21 -45 45c0 25 20 45 45 45h315z" />
    <glyph glyph-name="ampersand" unicode="&#x26;" horiz-adv-x="671" 
d="M533 167l28 -29c18 -17 18 -46 0 -63c-8 -9 -20 -13 -31 -13c-12 0 -23 4 -32 13l-28 28l-54 -53c-36 -36 -83 -55 -131 -55c-47 0 -95 19 -131 55c-72 72 -72 190 0 262v0l53 53l-29 30c-51 51 -51 135 0 186s135 51 186 0c52 -51 52 -135 0 -186l-29 -30l135 -135
l28 28c17 18 46 18 63 0c18 -17 18 -46 0 -63zM242 517c-15 -16 -17 -42 0 -59l29 -29l30 29c16 17 14 43 0 59c-8 9 -19 13 -30 13s-21 -4 -29 -13zM353 113l53 54l-135 135l-53 -54v0c-37 -37 -37 -97 0 -135c37 -37 98 -37 135 0z" />
    <glyph glyph-name="dollar" unicode="$" horiz-adv-x="516" 
d="M418 249c25 -30 38 -69 38 -108c0 -96 -78 -174 -174 -174h-8v-28c0 -17 -13 -30 -30 -30s-30 13 -30 30v28h-90c-25 0 -45 20 -45 45s20 45 45 45h158c46 0 84 38 84 84c0 39 -26 72 -64 82l-110 26c-37 9 -70 30 -94 61c-25 30 -38 69 -38 108c0 89 68 163 154 173v29
c0 17 13 30 30 30s30 -13 30 -30v-28h83c25 0 45 -20 45 -45s-20 -45 -45 -45h-123c-46 0 -84 -38 -84 -84c0 -39 26 -73 64 -82c109 -26 110 -26 110 -26c37 -9 70 -31 94 -61z" />
    <glyph glyph-name="Euro" unicode="&#x20ac;" horiz-adv-x="707" 
d="M572 111c19 16 48 14 64 -5s14 -47 -5 -63c-56 -49 -129 -76 -203 -76c-43 0 -84 9 -122 25c-84 36 -152 110 -178 198h-38c-17 0 -30 14 -30 30c0 17 13 30 30 30h26c0 10 -1 20 -1 30s1 20 2 30h-27c-17 0 -30 14 -30 30c0 17 13 30 30 30h38c4 11 7 21 12 31
c30 75 92 135 166 167c38 16 79 24 122 24c74 0 147 -27 203 -75c19 -16 21 -45 5 -64s-45 -21 -64 -4c-40 34 -91 53 -144 53c-87 0 -169 -51 -204 -132h116c17 0 30 -13 30 -30c0 -16 -13 -30 -30 -30h-133c-1 -10 -2 -20 -2 -30s1 -20 2 -30h133c17 0 30 -13 30 -30
c0 -16 -13 -30 -30 -30h-116c11 -25 26 -48 46 -67c42 -43 98 -66 158 -66c53 0 104 19 144 54z" />
    <glyph glyph-name="asterisk" unicode="*" horiz-adv-x="473" 
d="M390 508c8 -24 -5 -49 -29 -57l-52 -17l32 -44c15 -20 10 -48 -10 -63c-8 -6 -17 -9 -26 -9c-14 0 -28 7 -37 19l-32 44l-32 -44c-9 -12 -22 -19 -36 -19c-10 0 -19 3 -27 9c-20 15 -24 43 -10 63l32 44l-52 17c-23 8 -36 33 -29 57c8 24 34 36 57 29l52 -17v55
c0 25 20 45 45 45s45 -20 45 -45v-55l52 17c24 7 49 -5 57 -29z" />
    <glyph glyph-name="copyright" unicode="&#xa9;" horiz-adv-x="1133" 
d="M1010 466c25 -59 37 -122 37 -187c0 -64 -12 -127 -37 -186c-76 -177 -251 -294 -443 -294c-189 0 -369 118 -442 294c-25 59 -38 122 -38 186c0 65 13 128 38 187c74 177 251 293 442 293c194 0 365 -116 443 -293zM843 4c74 73 114 171 114 275c0 105 -40 202 -114 276
s-172 114 -276 114s-202 -40 -275 -114c-74 -74 -115 -171 -115 -276c0 -104 41 -202 115 -275c73 -74 171 -115 275 -115s202 41 276 115zM681 380c-60 60 -159 60 -219 0c-29 -30 -45 -69 -45 -110s16 -80 45 -110c60 -60 159 -60 219 0c18 18 46 18 64 0
c17 -17 17 -46 0 -63c-46 -46 -108 -72 -173 -72c-66 0 -127 26 -174 72c-46 46 -71 108 -71 173s25 127 71 173c47 47 108 72 174 72c65 0 127 -25 173 -72c17 -17 17 -46 0 -63c-18 -18 -46 -18 -64 0z" />
    <glyph glyph-name="section" unicode="&#xa7;" horiz-adv-x="480" 
d="M80 588v7c2 58 50 105 109 105h100c25 0 45 -21 45 -45c0 -25 -20 -45 -45 -45h-100c-10 0 -19 -9 -19 -19c0 -8 6 -15 14 -17l72 -18v0c49 -12 83 -55 83 -105c0 -25 -20 -45 -45 -45s-45 20 -45 45c0 8 -6 16 -14 18l-72 17v0c-48 12 -81 53 -83 102zM340 270v-7
c-3 -58 -51 -104 -109 -104h-100c-25 0 -45 20 -45 45s20 45 45 45h100c10 0 19 8 19 18c0 8 -6 16 -15 18c-71 17 -72 17 -72 17c-48 12 -83 55 -83 106c0 25 21 45 45 45c25 0 45 -20 45 -45c0 -9 6 -17 15 -19l72 -17c47 -12 81 -53 83 -102z" />
    <glyph glyph-name="tilde" unicode="&#x2dc;" horiz-adv-x="870" 
d="M358 586c-24 0 -49 11 -74 34c-28 25 -44 28 -52 3c-4 -13 -15 -21 -28 -21c-20 0 -35 19 -29 39c2 4 15 46 55 57c30 8 61 -1 95 -33c25 -24 43 -22 52 -1c6 15 23 23 39 17c15 -6 23 -23 17 -39c-2 -4 -18 -44 -59 -54c-5 -1 -11 -2 -16 -2z" />
    <glyph glyph-name="numbersign" unicode="#" horiz-adv-x="704" 
d="M559 369h-60l-14 -181h34c25 0 45 -20 45 -45s-20 -45 -45 -45h-41l-7 -90c-1 -24 -21 -42 -44 -42s-47 19 -45 48l6 84h-118l-7 -90c-2 -24 -22 -42 -45 -42c-24 0 -47 21 -45 48l6 84h-54c-25 0 -45 20 -45 45s20 45 45 45h61l14 181h-35c-25 0 -45 20 -45 45
s20 45 45 45h42l6 90c2 25 24 44 48 42c25 -2 44 -24 42 -48l-6 -84h118l7 90c2 25 23 44 48 42s43 -24 41 -48l-6 -84h54c25 0 45 -20 45 -45s-20 -45 -45 -45zM395 188l13 181h-118l-14 -181h119z" />
    <glyph glyph-name="slash" unicode="/" horiz-adv-x="501" 
d="M126 -4c-31 0 -54 32 -43 61l190 534c8 23 34 36 58 27c23 -8 35 -34 27 -57l-190 -535c-6 -18 -24 -30 -42 -30z" />
    <glyph glyph-name="backslash" unicode="\" horiz-adv-x="501" 
d="M315 -3c-18 0 -35 11 -42 30l-190 535c-8 23 4 49 27 57c24 9 49 -3 58 -27l190 -535c8 -23 -4 -49 -28 -58c-5 -1 -10 -2 -15 -2z" />
    <glyph glyph-name="percent" unicode="%" horiz-adv-x="831" 
d="M212 319c-83 0 -150 68 -150 151s67 150 150 150s151 -67 151 -150s-68 -151 -151 -151zM212 530c-33 0 -60 -27 -60 -60s27 -61 60 -61c34 0 61 28 61 61s-27 60 -61 60zM628 -4c-83 0 -150 67 -150 150s67 151 150 151s151 -68 151 -151s-68 -150 -151 -150zM628 207
c-33 0 -60 -27 -60 -61c0 -33 27 -60 60 -60c34 0 61 27 61 60c0 34 -27 61 -61 61zM628 551l-341 -534c-14 -21 -42 -27 -63 -14c-20 14 -27 42 -13 63l342 534c13 21 41 27 62 14c21 -14 27 -42 13 -63z" />
    <glyph glyph-name="perthousand" unicode="&#x2030;" horiz-adv-x="1032" 
d="M829 297c83 0 151 -68 151 -151s-68 -150 -151 -150c-41 0 -78 16 -105 43c-27 -27 -65 -43 -106 -43c-83 0 -150 67 -150 150s67 151 150 151c41 0 79 -17 106 -44c27 27 64 44 105 44zM618 86c34 0 61 27 61 60c0 34 -27 61 -61 61c-33 0 -60 -27 -60 -61
c0 -33 27 -60 60 -60zM829 86c34 0 61 27 61 60c0 34 -27 61 -61 61c-33 0 -60 -27 -60 -61c0 -33 27 -60 60 -60zM353 470c0 -83 -68 -151 -151 -151s-150 68 -150 151s67 150 150 150s151 -67 151 -150zM142 470c0 -33 27 -61 60 -61c34 0 61 28 61 61s-27 60 -61 60
c-33 0 -60 -27 -60 -60zM618 551l-341 -534c-14 -21 -42 -27 -63 -14c-20 14 -27 42 -13 63l342 534c13 21 41 27 62 14c21 -14 27 -42 13 -63z" />
    <glyph glyph-name="dieresis" unicode="&#xa8;" horiz-adv-x="522" 
d="M191 679c25 0 45 -20 45 -45s-20 -45 -45 -45s-45 20 -45 45s20 45 45 45zM331 679c25 0 45 -20 45 -45s-20 -45 -45 -45s-45 20 -45 45s20 45 45 45z" />
    <glyph glyph-name="bullet" unicode="&#x2022;" horiz-adv-x="562" 
d="M281 361c45 0 81 -36 81 -81s-36 -81 -81 -81s-81 36 -81 81s36 81 81 81z" />
    <glyph glyph-name="exclamdown" unicode="&#xa1;" horiz-adv-x="237" 
d="M117 236c25 0 45 -20 45 -45v-350c0 -25 -20 -45 -45 -45s-45 20 -45 45v350c0 25 20 45 45 45zM182 384c0 -37 -29 -66 -65 -66s-66 29 -66 66c0 36 30 65 66 65s65 -29 65 -65z" />
    <glyph glyph-name="less" unicode="&#x3c;" horiz-adv-x="551" 
d="M366 -26c-15 0 -29 7 -38 20l-179 268c-11 15 -11 35 0 50l179 267c14 21 42 26 63 12c20 -13 26 -41 12 -62l-163 -242l163 -243c20 -28 -2 -70 -37 -70z" />
    <glyph glyph-name="greater" unicode="&#x3e;" horiz-adv-x="551" 
d="M185 -26c-35 0 -57 42 -37 70l163 243l-163 242c-14 21 -8 49 12 62c21 14 49 9 63 -12l179 -267c11 -15 11 -35 0 -50l-179 -268c-9 -13 -23 -20 -38 -20z" />
    <glyph glyph-name="cent" unicode="&#xa2;" horiz-adv-x="549" 
d="M412 102c17 18 47 19 65 1c17 -17 16 -47 -1 -64c-36 -36 -80 -59 -127 -68v-32c0 -25 -20 -45 -45 -45s-45 20 -45 45v32c-48 9 -92 32 -128 68c-46 46 -71 107 -71 172s25 126 71 172c36 35 80 58 128 67v32c0 25 20 45 45 45s45 -20 45 -45v-32c47 -9 91 -32 127 -67
c17 -18 18 -47 1 -65c-18 -17 -48 -16 -65 1c-29 29 -68 45 -109 45s-79 -16 -108 -45c-60 -60 -60 -157 0 -217c29 -29 67 -45 108 -45s80 16 109 45z" />
    <glyph glyph-name="asciicircum" unicode="^" horiz-adv-x="547" 
d="M133 353c-36 -1 -59 45 -35 73l140 177c17 22 53 23 71 0l140 -177c15 -20 12 -48 -7 -63c-20 -16 -48 -13 -64 7l-104 133l-105 -133c-9 -11 -22 -17 -36 -17z" />
    <glyph glyph-name="underscore" unicode="_" horiz-adv-x="596" 
d="M568 -138c0 -25 -20 -45 -45 -45h-450c-25 0 -45 20 -45 45s20 45 45 45h450c25 0 45 -20 45 -45z" />
    <glyph glyph-name="bar" unicode="|" horiz-adv-x="266" 
d="M133 742c25 0 45 -20 45 -45v-835c0 -25 -20 -45 -45 -45s-45 20 -45 45v835c0 25 20 45 45 45z" />
    <glyph glyph-name="brokenbar" unicode="&#xa6;" horiz-adv-x="266" 
d="M133 742c25 0 45 -20 45 -45v-332c0 -25 -20 -45 -45 -45s-45 20 -45 45v332c0 25 20 45 45 45zM133 239c25 0 45 -20 45 -45v-332c0 -25 -20 -45 -45 -45s-45 20 -45 45v332c0 25 20 45 45 45z" />
    <glyph glyph-name="yen" unicode="&#xa5;" horiz-adv-x="647" 
d="M566 615c21 -14 27 -42 13 -62l-217 -337v-174c0 -25 -20 -45 -45 -45s-45 20 -45 45v174l-217 337c-13 20 -7 48 14 62c21 13 49 7 62 -14l186 -289l186 289c14 21 42 27 63 14zM147 340c16 0 30 -13 30 -30s-14 -30 -30 -30h-54c-16 0 -30 13 -30 30s14 30 30 30h54z
M541 340c17 0 30 -13 30 -30s-13 -30 -30 -30h-53c-17 0 -30 13 -30 30s13 30 30 30h53z" />
    <glyph glyph-name="trademark" unicode="&#x2122;" horiz-adv-x="811" 
d="M308 753c16 0 30 -14 30 -30c0 -17 -14 -30 -30 -30h-55v-209c0 -17 -14 -30 -30 -30c-17 0 -30 13 -30 30v209h-55c-17 0 -30 13 -30 30c0 16 13 30 30 30h170zM681 752c13 -4 22 -16 22 -29v-239c0 -17 -14 -30 -30 -30c-17 0 -30 13 -30 30v133l-80 -129
c-6 -9 -15 -14 -25 -14c-11 0 -20 5 -26 14l-79 129v-133c0 -17 -14 -30 -30 -30c-17 0 -30 13 -30 30v239c0 13 9 25 22 29c12 3 26 -2 33 -14l110 -177l109 177c7 12 21 17 34 14z" />
    <glyph glyph-name="degree" unicode="&#xb0;" horiz-adv-x="306" 
d="M153 535c-58 0 -105 47 -105 105s47 105 105 105s105 -47 105 -105s-47 -105 -105 -105zM153 685c-25 0 -45 -20 -45 -45s20 -45 45 -45s45 20 45 45s-20 45 -45 45z" />
    <glyph glyph-name="endash" unicode="&#x2013;" horiz-adv-x="574" 
d="M526 409c0 -25 -20 -45 -45 -45h-388c-25 0 -45 20 -45 45s20 45 45 45h388c25 0 45 -20 45 -45z" />
    <glyph glyph-name="emdash" unicode="&#x2014;" horiz-adv-x="791" 
d="M743 409c0 -25 -20 -45 -45 -45h-605c-25 0 -45 20 -45 45s20 45 45 45h605c25 0 45 -20 45 -45z" />
    <glyph glyph-name="registered" unicode="&#xae;" horiz-adv-x="1132" 
d="M763 101c18 -28 0 -70 -37 -70c-15 0 -29 7 -37 19l-97 140h-102v-114c0 -25 -20 -45 -45 -45s-45 20 -45 45v159v241c0 25 20 45 45 45h174c84 0 152 -84 152 -165c0 -62 -34 -116 -84 -144zM490 431v-151h124c38 4 67 37 67 76c0 38 -29 71 -67 75h-124zM1009 466
c25 -59 37 -122 37 -187c0 -127 -51 -250 -140 -339c-90 -90 -213 -141 -340 -141c-126 0 -249 51 -339 141c-89 89 -141 213 -141 339c0 65 13 128 38 187c74 177 251 293 442 293c194 0 365 -116 443 -293zM842 4c74 73 114 171 114 275c0 105 -40 202 -114 276
s-172 114 -276 114s-202 -40 -275 -114c-74 -74 -115 -171 -115 -276c0 -104 41 -202 115 -275c73 -74 171 -115 275 -115s202 41 276 115z" />
    <glyph glyph-name="sterling" unicode="&#xa3;" horiz-adv-x="597" 
d="M492 57c25 0 45 -20 45 -45s-20 -45 -45 -45h-382c-25 0 -45 20 -45 45s20 45 45 45h5v193h-25c-17 0 -30 13 -30 30c0 16 13 30 30 30h25v37c0 65 25 127 72 173c46 46 107 72 173 72c25 0 45 -20 45 -45s-20 -45 -45 -45c-86 0 -155 -70 -155 -155v-37h105
c17 0 30 -14 30 -30c0 -17 -13 -30 -30 -30h-105v-193h287z" />
    <glyph glyph-name="paragraph" unicode="&#xb6;" horiz-adv-x="641" 
d="M476 506c25 0 45 -20 45 -45v-375c0 -24 -20 -45 -45 -45s-45 21 -45 45v375c0 25 20 45 45 45zM536 667c25 0 45 -20 45 -45c0 -24 -20 -45 -45 -45h-205c-85 0 -153 -68 -153 -153c0 -71 48 -130 113 -148v185c0 25 20 45 45 45s45 -20 45 -45v-375
c0 -24 -20 -45 -45 -45s-45 21 -45 45v98c-50 8 -96 31 -132 68c-46 46 -71 107 -71 172s25 126 71 172s107 71 172 71h205z" />
    <glyph glyph-name="divide" unicode="&#xf7;" horiz-adv-x="605" 
d="M500 364h-395c-25 0 -45 21 -45 45c0 25 20 45 45 45h395c25 0 45 -20 45 -45c0 -24 -20 -45 -45 -45zM347 607c0 -25 -20 -45 -45 -45s-45 20 -45 45s20 45 45 45s45 -20 45 -45zM347 212c0 -25 -20 -45 -45 -45s-45 20 -45 45s20 45 45 45s45 -20 45 -45z" />
    <glyph glyph-name="Agrave" unicode="&#xc0;" horiz-adv-x="643" 
d="M605 31c11 -23 1 -49 -22 -60c-22 -10 -49 -1 -60 22l-47 100h-313l-44 -99c-7 -17 -24 -27 -41 -27c-6 0 -12 1 -18 4c-23 10 -33 36 -23 59l236 535c7 16 23 27 41 27s34 -10 41 -26zM203 183h231l-118 255zM395 666c-3 0 -6 1 -10 2l-149 55c-15 5 -23 23 -18 38
c6 16 23 24 39 18l149 -55c31 -10 22 -58 -11 -58z" />
    <glyph glyph-name="Aacute" unicode="&#xc1;" horiz-adv-x="643" 
d="M605 31c11 -23 1 -49 -22 -60c-22 -10 -49 -1 -60 22l-47 100h-313l-44 -99c-7 -17 -24 -27 -41 -27c-6 0 -12 1 -18 4c-23 10 -33 36 -23 59l236 535c7 16 23 27 41 27s34 -10 41 -26zM203 183h231l-118 255zM247 666c-32 0 -42 49 -10 58l149 55c15 6 32 -2 38 -18
c6 -15 -2 -33 -18 -38l-149 -55c-3 -1 -7 -2 -10 -2z" />
    <glyph glyph-name="Acircumflex" unicode="&#xc2;" horiz-adv-x="643" 
d="M605 31c11 -23 1 -49 -22 -60c-22 -10 -49 -1 -60 22l-47 100h-313l-44 -99c-7 -17 -24 -27 -41 -27c-6 0 -12 1 -18 4c-23 10 -33 36 -23 59l236 535c7 16 23 27 41 27s34 -10 41 -26zM203 183h231l-118 255zM321 785c5 0 10 -1 15 -3l99 -55c15 -8 20 -26 12 -41
c-8 -14 -26 -19 -40 -11l-86 46l-86 -46c-14 -8 -32 -3 -40 11c-8 15 -3 33 12 41l100 55c4 2 9 3 14 3z" />
    <glyph glyph-name="Atilde" unicode="&#xc3;" horiz-adv-x="643" 
d="M605 31c11 -23 1 -49 -22 -60c-22 -10 -49 -1 -60 22l-47 100h-313l-44 -99c-7 -17 -24 -27 -41 -27c-6 0 -12 1 -18 4c-23 10 -33 36 -23 59l236 535c7 16 23 27 41 27s34 -10 41 -26zM203 183h231l-118 255zM375 666c-24 0 -49 11 -74 34c-28 25 -44 28 -52 3
c-4 -13 -15 -21 -28 -21c-20 0 -35 19 -29 39c2 4 15 46 55 57c30 8 61 -1 95 -33c25 -24 43 -22 52 -1c6 15 23 23 39 17c15 -6 23 -23 17 -39c-2 -4 -18 -44 -59 -54c-5 -1 -11 -2 -16 -2z" />
    <glyph glyph-name="Adieresis" unicode="&#xc4;" horiz-adv-x="643" 
d="M605 31c11 -23 1 -49 -22 -60c-22 -10 -49 -1 -60 22l-47 100h-313l-44 -99c-7 -17 -24 -27 -41 -27c-6 0 -12 1 -18 4c-23 10 -33 36 -23 59l236 535c7 16 23 27 41 27s34 -10 41 -26zM203 183h231l-118 255zM251 759c25 0 45 -20 45 -45s-20 -45 -45 -45s-45 20 -45 45
s20 45 45 45zM391 759c25 0 45 -20 45 -45s-20 -45 -45 -45s-45 20 -45 45s20 45 45 45z" />
    <glyph glyph-name="Aring" unicode="&#xc5;" horiz-adv-x="643" 
d="M605 31c11 -23 1 -49 -22 -60c-22 -10 -49 -1 -60 22l-47 100h-313l-44 -99c-7 -17 -24 -27 -41 -27c-6 0 -12 1 -18 4c-23 10 -33 36 -23 59l236 535c7 16 23 27 41 27s34 -10 41 -26zM203 183h231l-118 255zM311 615c-55 0 -99 44 -99 99c0 54 44 99 99 99
s99 -45 99 -99c0 -55 -44 -99 -99 -99zM311 753c-21 0 -39 -18 -39 -39c0 -22 18 -39 39 -39s39 17 39 39c0 21 -18 39 -39 39z" />
    <glyph glyph-name="Ccedilla" unicode="&#xc7;" horiz-adv-x="615" 
d="M354 -33c-42 0 -83 8 -121 25c-76 30 -135 92 -167 166c-16 38 -24 79 -24 121c0 43 8 83 24 122c32 74 92 136 167 166c38 17 79 25 121 25c75 0 147 -27 204 -76c19 -16 21 -44 5 -63c-17 -19 -45 -21 -64 -5c-40 35 -92 54 -145 54c-59 0 -115 -23 -157 -65
s-65 -98 -65 -158c0 -59 23 -115 65 -157s98 -65 157 -65c53 0 105 19 145 54c19 16 47 14 64 -5c16 -19 14 -47 -5 -64c-57 -48 -129 -75 -204 -75zM325 -250c-17 0 -30 14 -30 30c0 17 13 30 30 30c11 0 20 9 20 20s-9 20 -20 20c-17 0 -30 14 -30 30v51c0 17 13 30 30 30
c16 0 30 -13 30 -30v-26c29 -12 50 -41 50 -75c0 -44 -36 -80 -80 -80z" />
    <glyph glyph-name="Egrave" unicode="&#xc8;" horiz-adv-x="465" 
d="M382 57c24 0 45 -20 45 -45s-21 -45 -45 -45h-298c-25 0 -45 20 -45 45v535c0 25 20 45 45 45h298c24 0 45 -20 45 -45s-21 -45 -45 -45h-253v-177h163c24 0 45 -21 45 -45c0 -25 -21 -45 -45 -45h-163v-178h253zM312 666c-3 0 -6 1 -10 2l-149 55c-15 5 -23 23 -18 38
c6 16 23 24 39 18l149 -55c31 -10 22 -58 -11 -58z" />
    <glyph glyph-name="Eacute" unicode="&#xc9;" horiz-adv-x="465" 
d="M382 57c24 0 45 -20 45 -45s-21 -45 -45 -45h-298c-25 0 -45 20 -45 45v535c0 25 20 45 45 45h298c24 0 45 -20 45 -45s-21 -45 -45 -45h-253v-177h163c24 0 45 -21 45 -45c0 -25 -21 -45 -45 -45h-163v-178h253zM164 666c-32 0 -42 49 -10 58l149 55c15 6 32 -2 38 -18
c6 -15 -2 -33 -18 -38l-149 -55c-3 -1 -7 -2 -10 -2z" />
    <glyph glyph-name="Ecircumflex" unicode="&#xca;" horiz-adv-x="465" 
d="M382 57c24 0 45 -20 45 -45s-21 -45 -45 -45h-298c-25 0 -45 20 -45 45v535c0 25 20 45 45 45h298c24 0 45 -20 45 -45s-21 -45 -45 -45h-253v-177h163c24 0 45 -21 45 -45c0 -25 -21 -45 -45 -45h-163v-178h253zM238 785c5 0 10 -1 15 -3l99 -55c15 -8 20 -26 12 -41
c-8 -14 -26 -19 -40 -11l-86 46l-86 -46c-14 -8 -32 -3 -40 11c-8 15 -3 33 12 41l100 55c4 2 9 3 14 3z" />
    <glyph glyph-name="Edieresis" unicode="&#xcb;" horiz-adv-x="465" 
d="M382 57c24 0 45 -20 45 -45s-21 -45 -45 -45h-298c-25 0 -45 20 -45 45v535c0 25 20 45 45 45h298c24 0 45 -20 45 -45s-21 -45 -45 -45h-253v-177h163c24 0 45 -21 45 -45c0 -25 -21 -45 -45 -45h-163v-178h253zM168 759c25 0 45 -20 45 -45s-20 -45 -45 -45
s-45 20 -45 45s20 45 45 45zM308 759c25 0 45 -20 45 -45s-20 -45 -45 -45s-45 20 -45 45s20 45 45 45z" />
    <glyph glyph-name="Igrave" unicode="&#xcc;" horiz-adv-x="347" 
d="M250 57c25 0 45 -20 45 -45s-20 -45 -45 -45h-153c-25 0 -45 20 -45 45s20 45 45 45h31v445h-31c-25 0 -45 20 -45 45s20 45 45 45h153c25 0 45 -20 45 -45s-20 -45 -45 -45h-32v-445h32zM248 666c-3 0 -6 1 -10 2l-149 55c-15 5 -23 23 -18 38c6 16 23 24 39 18l149 -55
c31 -10 22 -58 -11 -58z" />
    <glyph glyph-name="Iacute" unicode="&#xcd;" horiz-adv-x="347" 
d="M250 57c25 0 45 -20 45 -45s-20 -45 -45 -45h-153c-25 0 -45 20 -45 45s20 45 45 45h31v445h-31c-25 0 -45 20 -45 45s20 45 45 45h153c25 0 45 -20 45 -45s-20 -45 -45 -45h-32v-445h32zM100 666c-32 0 -42 49 -10 58l149 55c15 6 32 -2 38 -18c6 -15 -2 -33 -18 -38
l-149 -55c-3 -1 -7 -2 -10 -2z" />
    <glyph glyph-name="Icircumflex" unicode="&#xce;" horiz-adv-x="347" 
d="M250 57c25 0 45 -20 45 -45s-20 -45 -45 -45h-153c-25 0 -45 20 -45 45s20 45 45 45h31v445h-31c-25 0 -45 20 -45 45s20 45 45 45h153c25 0 45 -20 45 -45s-20 -45 -45 -45h-32v-445h32zM179 785c5 0 10 -1 15 -3l99 -55c15 -8 20 -26 12 -41c-8 -14 -26 -19 -40 -11
l-86 46l-86 -46c-14 -8 -32 -3 -40 11c-8 15 -3 33 12 41l100 55c4 2 9 3 14 3z" />
    <glyph glyph-name="Idieresis" unicode="&#xcf;" horiz-adv-x="347" 
d="M250 57c25 0 45 -20 45 -45s-20 -45 -45 -45h-153c-25 0 -45 20 -45 45s20 45 45 45h31v445h-31c-25 0 -45 20 -45 45s20 45 45 45h153c25 0 45 -20 45 -45s-20 -45 -45 -45h-32v-445h32zM104 759c25 0 45 -20 45 -45s-20 -45 -45 -45s-45 20 -45 45s20 45 45 45z
M244 759c25 0 45 -20 45 -45s-20 -45 -45 -45s-45 20 -45 45s20 45 45 45z" />
    <glyph glyph-name="Ntilde" unicode="&#xd1;" horiz-adv-x="606" 
d="M495 -33c-14 0 -28 7 -36 19l-305 422v-396c0 -25 -20 -45 -45 -45s-45 20 -45 45v535c0 19 12 36 31 42c18 6 39 0 50 -16l305 -422v396c0 25 20 45 45 45s45 -20 45 -45v-535c0 -20 -12 -37 -31 -43c-4 -1 -9 -2 -14 -2zM358 666c-24 0 -49 11 -74 34
c-28 25 -44 28 -52 3c-4 -13 -15 -21 -28 -21c-20 0 -35 19 -29 39c2 4 15 46 55 57c30 8 61 -1 95 -33c25 -24 43 -22 52 -1c6 15 23 23 39 17c15 -6 23 -23 17 -39c-2 -4 -18 -44 -59 -54c-5 -1 -11 -2 -16 -2z" />
    <glyph glyph-name="Ograve" unicode="&#xd2;" horiz-adv-x="708" 
d="M354 -34c-83 0 -162 32 -221 91c-28 29 -51 62 -67 99c-16 39 -24 80 -24 122s8 83 24 121c16 37 39 71 67 99c59 59 138 92 221 92s163 -34 221 -92c28 -28 51 -62 67 -99c16 -38 24 -79 24 -121s-8 -83 -24 -122c-16 -37 -39 -70 -67 -99c-58 -58 -138 -91 -221 -91z
M354 500c-59 0 -115 -23 -157 -65s-65 -98 -65 -157c0 -60 23 -115 65 -157s98 -65 157 -65s115 23 157 65s65 97 65 157c0 59 -23 115 -65 157s-98 65 -157 65zM440 666c-3 0 -6 1 -10 2l-149 55c-15 5 -23 23 -18 38c6 16 23 24 39 18l149 -55c31 -10 22 -58 -11 -58z" />
    <glyph glyph-name="Oacute" unicode="&#xd3;" horiz-adv-x="708" 
d="M354 -34c-83 0 -162 32 -221 91c-28 29 -51 62 -67 99c-16 39 -24 80 -24 122s8 83 24 121c16 37 39 71 67 99c59 59 138 92 221 92s163 -34 221 -92c28 -28 51 -62 67 -99c16 -38 24 -79 24 -121s-8 -83 -24 -122c-16 -37 -39 -70 -67 -99c-58 -58 -138 -91 -221 -91z
M354 500c-59 0 -115 -23 -157 -65s-65 -98 -65 -157c0 -60 23 -115 65 -157s98 -65 157 -65s115 23 157 65s65 97 65 157c0 59 -23 115 -65 157s-98 65 -157 65zM292 666c-32 0 -42 49 -10 58l149 55c15 6 32 -2 38 -18c6 -15 -2 -33 -18 -38l-149 -55c-3 -1 -7 -2 -10 -2z
" />
    <glyph glyph-name="Ocircumflex" unicode="&#xd4;" horiz-adv-x="708" 
d="M354 -34c-83 0 -162 32 -221 91c-28 29 -51 62 -67 99c-16 39 -24 80 -24 122s8 83 24 121c16 37 39 71 67 99c59 59 138 92 221 92s163 -34 221 -92c28 -28 51 -62 67 -99c16 -38 24 -79 24 -121s-8 -83 -24 -122c-16 -37 -39 -70 -67 -99c-58 -58 -138 -91 -221 -91z
M354 500c-59 0 -115 -23 -157 -65s-65 -98 -65 -157c0 -60 23 -115 65 -157s98 -65 157 -65s115 23 157 65s65 97 65 157c0 59 -23 115 -65 157s-98 65 -157 65zM366 785c5 0 10 -1 15 -3l99 -55c15 -8 20 -26 12 -41c-8 -14 -26 -19 -40 -11l-86 46l-86 -46
c-14 -8 -32 -3 -40 11c-8 15 -3 33 12 41l100 55c4 2 9 3 14 3z" />
    <glyph glyph-name="Otilde" unicode="&#xd5;" horiz-adv-x="708" 
d="M354 -34c-83 0 -162 32 -221 91c-28 29 -51 62 -67 99c-16 39 -24 80 -24 122s8 83 24 121c16 37 39 71 67 99c59 59 138 92 221 92s163 -34 221 -92c28 -28 51 -62 67 -99c16 -38 24 -79 24 -121s-8 -83 -24 -122c-16 -37 -39 -70 -67 -99c-58 -58 -138 -91 -221 -91z
M354 500c-59 0 -115 -23 -157 -65s-65 -98 -65 -157c0 -60 23 -115 65 -157s98 -65 157 -65s115 23 157 65s65 97 65 157c0 59 -23 115 -65 157s-98 65 -157 65zM420 666c-24 0 -49 11 -74 34c-28 25 -44 28 -52 3c-4 -13 -15 -21 -28 -21c-20 0 -35 19 -29 39
c2 4 15 46 55 57c30 8 61 -1 95 -33c25 -24 43 -22 52 -1c6 15 23 23 39 17c15 -6 23 -23 17 -39c-2 -4 -18 -44 -59 -54c-5 -1 -11 -2 -16 -2z" />
    <glyph glyph-name="Odieresis" unicode="&#xd6;" horiz-adv-x="708" 
d="M354 -34c83 0 163 33 221 91c28 29 51 62 67 99c16 39 24 80 24 122s-8 83 -24 121c-16 37 -39 71 -67 99c-58 58 -138 92 -221 92s-162 -33 -221 -92c-28 -28 -51 -62 -67 -99c-16 -38 -24 -79 -24 -121s8 -83 24 -122c16 -37 39 -70 67 -99c59 -59 138 -91 221 -91z
M354 500c59 0 115 -23 157 -65s65 -98 65 -157c0 -60 -23 -115 -65 -157s-98 -65 -157 -65s-115 23 -157 65s-65 97 -65 157c0 59 23 115 65 157s98 65 157 65zM296 759c25 0 45 -20 45 -45s-20 -45 -45 -45s-45 20 -45 45s20 45 45 45zM436 759c25 0 45 -20 45 -45
s-20 -45 -45 -45s-45 20 -45 45s20 45 45 45z" />
    <glyph glyph-name="Ugrave" unicode="&#xd9;" horiz-adv-x="583" 
d="M292 -32c-65 0 -126 25 -172 71s-72 107 -72 172v336c0 24 20 45 45 45s45 -21 45 -45v-336c0 -85 69 -153 154 -153c84 0 153 68 153 153v336c0 24 20 45 45 45s45 -21 45 -45v-336c0 -65 -25 -126 -71 -172s-107 -71 -172 -71zM367 666c-3 0 -6 1 -10 2l-149 55
c-15 5 -23 23 -18 38c6 16 23 24 39 18l149 -55c31 -10 22 -58 -11 -58z" />
    <glyph glyph-name="Uacute" unicode="&#xda;" horiz-adv-x="583" 
d="M292 -32c-65 0 -126 25 -172 71s-72 107 -72 172v336c0 24 20 45 45 45s45 -21 45 -45v-336c0 -85 69 -153 154 -153c84 0 153 68 153 153v336c0 24 20 45 45 45s45 -21 45 -45v-336c0 -65 -25 -126 -71 -172s-107 -71 -172 -71zM219 666c-32 0 -42 49 -10 58l149 55
c15 6 32 -2 38 -18c6 -15 -2 -33 -18 -38l-149 -55c-3 -1 -7 -2 -10 -2z" />
    <glyph glyph-name="Ucircumflex" unicode="&#xdb;" horiz-adv-x="583" 
d="M292 -32c-65 0 -126 25 -172 71s-72 107 -72 172v336c0 24 20 45 45 45s45 -21 45 -45v-336c0 -85 69 -153 154 -153c84 0 153 68 153 153v336c0 24 20 45 45 45s45 -21 45 -45v-336c0 -65 -25 -126 -71 -172s-107 -71 -172 -71zM293 785c5 0 10 -1 15 -3l99 -55
c15 -8 20 -26 12 -41c-8 -14 -26 -19 -40 -11l-86 46l-86 -46c-14 -8 -32 -3 -40 11c-8 15 -3 33 12 41l100 55c4 2 9 3 14 3z" />
    <glyph glyph-name="Udieresis" unicode="&#xdc;" horiz-adv-x="583" 
d="M292 -32c65 0 126 25 172 71s71 107 71 172v336c0 24 -20 45 -45 45s-45 -21 -45 -45v-336c0 -85 -69 -153 -153 -153c-85 0 -154 68 -154 153v336c0 24 -20 45 -45 45s-45 -21 -45 -45v-336c0 -65 26 -126 72 -172s107 -71 172 -71zM223 759c25 0 45 -20 45 -45
s-20 -45 -45 -45s-45 20 -45 45s20 45 45 45zM363 759c25 0 45 -20 45 -45s-20 -45 -45 -45s-45 20 -45 45s20 45 45 45z" />
    <glyph glyph-name="Yacute" unicode="&#xdd;" horiz-adv-x="606" 
d="M551 585c21 -14 27 -42 14 -62l-217 -337v-174c0 -25 -20 -45 -45 -45s-45 20 -45 45v174l-217 337c-14 20 -8 48 13 62c21 13 49 7 63 -14l186 -289l186 289c13 21 41 27 62 14zM226 666c-32 0 -42 49 -10 58l149 55c15 6 32 -2 38 -18c6 -15 -2 -33 -18 -38l-149 -55
c-3 -1 -7 -2 -10 -2z" />
    <glyph glyph-name="agrave" unicode="&#xe0;" 
d="M548 40c15 -16 15 -41 -1 -56c-8 -8 -18 -12 -28 -12c-11 0 -21 5 -29 13c-15 15 -25 33 -32 52c-46 -45 -106 -70 -170 -70c-66 0 -127 26 -173 72s-71 107 -71 172s25 126 71 172s107 71 173 71c61 0 118 -22 163 -63v18c0 22 18 40 40 40s40 -18 40 -40v-328
c0 -15 6 -30 17 -41zM288 57c84 0 153 69 153 154c0 84 -69 153 -153 153c-85 0 -154 -69 -154 -153c0 -85 69 -154 154 -154zM381 586c-3 0 -6 1 -10 2l-149 55c-15 5 -23 23 -18 38c6 16 23 24 39 18l149 -55c31 -10 22 -58 -11 -58z" />
    <glyph glyph-name="aacute" unicode="&#xe1;" 
d="M548 40c15 -16 15 -41 -1 -56c-8 -8 -18 -12 -28 -12c-11 0 -21 5 -29 13c-15 15 -25 33 -32 52c-46 -45 -106 -70 -170 -70c-66 0 -127 26 -173 72s-71 107 -71 172s25 126 71 172s107 71 173 71c61 0 118 -22 163 -63v18c0 22 18 40 40 40s40 -18 40 -40v-328
c0 -15 6 -30 17 -41zM288 57c84 0 153 69 153 154c0 84 -69 153 -153 153c-85 0 -154 -69 -154 -153c0 -85 69 -154 154 -154zM233 586c-32 0 -42 49 -10 58l149 55c15 6 32 -2 38 -18c6 -15 -2 -33 -18 -38l-149 -55c-3 -1 -7 -2 -10 -2z" />
    <glyph glyph-name="acircumflex" unicode="&#xe2;" 
d="M548 40c15 -16 15 -41 -1 -56c-8 -8 -18 -12 -28 -12c-11 0 -21 5 -29 13c-15 15 -25 33 -32 52c-46 -45 -106 -70 -170 -70c-66 0 -127 26 -173 72s-71 107 -71 172s25 126 71 172s107 71 173 71c61 0 118 -22 163 -63v18c0 22 18 40 40 40s40 -18 40 -40v-328
c0 -15 6 -30 17 -41zM288 57c84 0 153 69 153 154c0 84 -69 153 -153 153c-85 0 -154 -69 -154 -153c0 -85 69 -154 154 -154zM307 705c5 0 10 -1 15 -3l99 -55c15 -8 20 -26 12 -41c-8 -14 -26 -19 -40 -11l-86 46l-86 -46c-14 -8 -32 -3 -40 11c-8 15 -3 33 12 41l100 55
c4 2 9 3 14 3z" />
    <glyph glyph-name="atilde" unicode="&#xe3;" 
d="M548 40c15 -16 15 -41 -1 -56c-8 -8 -18 -12 -28 -12c-11 0 -21 5 -29 13c-15 15 -25 33 -32 52c-46 -45 -106 -70 -170 -70c-66 0 -127 26 -173 72s-71 107 -71 172s25 126 71 172s107 71 173 71c61 0 118 -22 163 -63v18c0 22 18 40 40 40s40 -18 40 -40v-328
c0 -15 6 -30 17 -41zM288 57c84 0 153 69 153 154c0 84 -69 153 -153 153c-85 0 -154 -69 -154 -153c0 -85 69 -154 154 -154zM361 586c-24 0 -49 11 -74 34c-28 25 -44 28 -52 3c-4 -13 -15 -21 -28 -21c-20 0 -35 19 -29 39c2 4 15 46 55 57c30 8 61 -1 95 -33
c25 -24 43 -22 52 -1c6 15 23 23 39 17c15 -6 23 -23 17 -39c-2 -4 -18 -44 -59 -54c-5 -1 -11 -2 -16 -2z" />
    <glyph glyph-name="adieresis" unicode="&#xe4;" 
d="M548 40c15 -16 15 -41 -1 -56c-8 -8 -18 -12 -28 -12c-11 0 -21 5 -29 13c-15 15 -25 33 -32 52c-46 -45 -106 -70 -170 -70c-66 0 -127 26 -173 72s-71 107 -71 172s25 126 71 172s107 71 173 71c61 0 118 -22 163 -63v18c0 22 18 40 40 40s40 -18 40 -40v-328
c0 -15 6 -30 17 -41zM288 57c84 0 153 69 153 154c0 84 -69 153 -153 153c-85 0 -154 -69 -154 -153c0 -85 69 -154 154 -154zM237 679c25 0 45 -20 45 -45s-20 -45 -45 -45s-45 20 -45 45s20 45 45 45zM377 679c25 0 45 -20 45 -45s-20 -45 -45 -45s-45 20 -45 45
s20 45 45 45z" />
    <glyph glyph-name="aring" unicode="&#xe5;" 
d="M548 40c15 -16 15 -41 -1 -56c-8 -8 -18 -12 -28 -12c-11 0 -21 5 -29 13c-15 15 -25 33 -32 52c-46 -45 -106 -70 -170 -70c-66 0 -127 26 -173 72s-71 107 -71 172s25 126 71 172s107 71 173 71c61 0 118 -22 163 -63v18c0 22 18 40 40 40s40 -18 40 -40v-328
c0 -15 6 -30 17 -41zM288 57c84 0 153 69 153 154c0 84 -69 153 -153 153c-85 0 -154 -69 -154 -153c0 -85 69 -154 154 -154zM307 535c-55 0 -99 44 -99 99c0 54 44 99 99 99s99 -45 99 -99c0 -55 -44 -99 -99 -99zM307 673c-21 0 -39 -18 -39 -39c0 -22 18 -39 39 -39
s39 17 39 39c0 21 -18 39 -39 39z" />
    <glyph glyph-name="ccedilla" unicode="&#xe7;" horiz-adv-x="515" 
d="M287 -32c-65 0 -126 25 -172 71s-71 107 -71 172s25 126 71 172s107 71 172 71s126 -25 172 -71c18 -18 19 -47 1 -65c-17 -17 -47 -16 -64 1c-60 60 -157 60 -217 0c-29 -29 -45 -67 -45 -108s16 -80 45 -109c29 -28 67 -44 108 -44s80 16 109 44c17 18 47 19 64 1
c18 -17 17 -47 -1 -64c-46 -46 -107 -71 -172 -71zM283 -277c-17 0 -30 14 -30 30c0 17 13 30 30 30c11 0 20 9 20 20s-9 20 -20 20c-17 0 -30 14 -30 30v51c0 17 13 30 30 30c16 0 30 -13 30 -30v-26c29 -12 50 -41 50 -75c0 -44 -36 -80 -80 -80z" />
    <glyph glyph-name="egrave" unicode="&#xe8;" horiz-adv-x="570" 
d="M287 -33c-65 0 -126 26 -172 72s-71 107 -71 172s25 126 71 172s107 71 172 71c110 0 207 -74 235 -180c3 -11 4 -20 4 -30c0 -62 -50 -112 -111 -112h-260c27 -45 76 -75 132 -75c25 0 45 -20 45 -45c0 -24 -20 -45 -45 -45zM134 222h281c18 0 23 16 20 29
c-18 67 -79 113 -148 113c-81 0 -147 -63 -153 -142zM383 586c-3 0 -6 1 -10 2l-149 55c-15 5 -23 23 -18 38c6 16 23 24 39 18l149 -55c31 -10 22 -58 -11 -58z" />
    <glyph glyph-name="eacute" unicode="&#xe9;" horiz-adv-x="570" 
d="M287 -33c-65 0 -126 26 -172 72s-71 107 -71 172s25 126 71 172s107 71 172 71c110 0 207 -74 235 -180c3 -11 4 -20 4 -30c0 -62 -50 -112 -111 -112h-260c27 -45 76 -75 132 -75c25 0 45 -20 45 -45c0 -24 -20 -45 -45 -45zM134 222h281c18 0 23 16 20 29
c-18 67 -79 113 -148 113c-81 0 -147 -63 -153 -142zM235 586c-32 0 -42 49 -10 58l149 55c15 6 32 -2 38 -18c6 -15 -2 -33 -18 -38l-149 -55c-3 -1 -7 -2 -10 -2z" />
    <glyph glyph-name="ecircumflex" unicode="&#xea;" horiz-adv-x="570" 
d="M287 -33c-65 0 -126 26 -172 72s-71 107 -71 172s25 126 71 172s107 71 172 71c110 0 207 -74 235 -180c3 -11 4 -20 4 -30c0 -62 -50 -112 -111 -112h-260c27 -45 76 -75 132 -75c25 0 45 -20 45 -45c0 -24 -20 -45 -45 -45zM134 222h281c18 0 23 16 20 29
c-18 67 -79 113 -148 113c-81 0 -147 -63 -153 -142zM309 705c5 0 10 -1 15 -3l99 -55c15 -8 20 -26 12 -41c-8 -14 -26 -19 -40 -11l-86 46l-86 -46c-14 -8 -32 -3 -40 11c-8 15 -3 33 12 41l100 55c4 2 9 3 14 3z" />
    <glyph glyph-name="edieresis" unicode="&#xeb;" horiz-adv-x="570" 
d="M287 -33c25 0 45 21 45 45c0 25 -20 45 -45 45c-56 0 -105 30 -132 75h260c61 0 111 50 111 112c0 10 -1 19 -4 30c-28 106 -125 180 -235 180c-65 0 -126 -25 -172 -71s-71 -107 -71 -172s25 -126 71 -172s107 -72 172 -72zM134 222c6 79 72 142 153 142
c69 0 130 -46 148 -113c3 -13 -2 -29 -20 -29h-281zM239 679c25 0 45 -20 45 -45s-20 -45 -45 -45s-45 20 -45 45s20 45 45 45zM379 679c25 0 45 -20 45 -45s-20 -45 -45 -45s-45 20 -45 45s20 45 45 45z" />
    <glyph glyph-name="igrave" unicode="&#xec;" horiz-adv-x="219" 
d="M109 41c-25 0 -45 20 -45 45v323c0 25 20 45 45 45s45 -20 45 -45v-323c0 -25 -20 -45 -45 -45zM184 586c-3 0 -6 1 -10 2l-149 55c-15 5 -23 23 -18 38c6 16 23 24 39 18l149 -55c31 -10 22 -58 -11 -58z" />
    <glyph glyph-name="iacute" unicode="&#xed;" horiz-adv-x="219" 
d="M109 41c-25 0 -45 20 -45 45v323c0 25 20 45 45 45s45 -20 45 -45v-323c0 -25 -20 -45 -45 -45zM36 586c-32 0 -42 49 -10 58l149 55c15 6 32 -2 38 -18c6 -15 -2 -33 -18 -38l-149 -55c-3 -1 -7 -2 -10 -2z" />
    <glyph glyph-name="icircumflex" unicode="&#xee;" horiz-adv-x="219" 
d="M109 41c-25 0 -45 20 -45 45v323c0 25 20 45 45 45s45 -20 45 -45v-323c0 -25 -20 -45 -45 -45zM111 705c5 0 10 -1 15 -3l99 -55c15 -8 20 -26 12 -41c-8 -14 -26 -19 -40 -11l-86 46l-86 -46c-14 -8 -32 -3 -40 11c-8 15 -3 33 12 41l100 55c4 2 9 3 14 3z" />
    <glyph glyph-name="idieresis" unicode="&#xef;" horiz-adv-x="219" 
d="M109 41c25 0 45 20 45 45v323c0 25 -20 45 -45 45s-45 -20 -45 -45v-323c0 -25 20 -45 45 -45zM40 679c25 0 45 -20 45 -45s-20 -45 -45 -45s-45 20 -45 45s20 45 45 45zM180 679c25 0 45 -20 45 -45s-20 -45 -45 -45s-45 20 -45 45s20 45 45 45z" />
    <glyph glyph-name="ntilde" unicode="&#xf1;" horiz-adv-x="578" 
d="M466 382c46 -46 72 -107 72 -173v-123c0 -25 -21 -45 -45 -45c-25 0 -45 20 -45 45v123c0 86 -70 155 -155 155c-86 0 -155 -69 -155 -155v-123c0 -25 -21 -45 -45 -45c-25 0 -45 20 -45 45v323c0 25 20 45 45 45c24 0 45 -20 45 -45v-10c43 36 97 55 155 55
c65 0 127 -25 173 -72zM355 586c-24 0 -49 11 -74 34c-28 25 -44 28 -52 3c-4 -13 -15 -21 -28 -21c-20 0 -35 19 -29 39c2 4 15 46 55 57c30 8 61 -1 95 -33c25 -24 43 -22 52 -1c6 15 23 23 39 17c15 -6 23 -23 17 -39c-2 -4 -18 -44 -59 -54c-5 -1 -11 -2 -16 -2z" />
    <glyph glyph-name="ograve" unicode="&#xf2;" horiz-adv-x="575" 
d="M287 -33c-65 0 -126 26 -172 72s-71 107 -71 172s25 126 71 172s107 71 172 71s127 -25 173 -71s71 -107 71 -172s-25 -126 -71 -172s-108 -72 -173 -72zM287 364c-84 0 -153 -69 -153 -153c0 -85 69 -154 153 -154c85 0 154 69 154 154c0 84 -69 153 -154 153zM361 586
c-3 0 -6 1 -10 2l-149 55c-15 5 -23 23 -18 38c6 16 23 24 39 18l149 -55c31 -10 22 -58 -11 -58z" />
    <glyph glyph-name="oacute" unicode="&#xf3;" horiz-adv-x="575" 
d="M287 -33c-65 0 -126 26 -172 72s-71 107 -71 172s25 126 71 172s107 71 172 71s127 -25 173 -71s71 -107 71 -172s-25 -126 -71 -172s-108 -72 -173 -72zM287 364c-84 0 -153 -69 -153 -153c0 -85 69 -154 153 -154c85 0 154 69 154 154c0 84 -69 153 -154 153zM213 586
c-32 0 -42 49 -10 58l149 55c15 6 32 -2 38 -18c6 -15 -2 -33 -18 -38l-149 -55c-3 -1 -7 -2 -10 -2z" />
    <glyph glyph-name="ocircumflex" unicode="&#xf4;" horiz-adv-x="575" 
d="M287 -33c-65 0 -126 26 -172 72s-71 107 -71 172s25 126 71 172s107 71 172 71s127 -25 173 -71s71 -107 71 -172s-25 -126 -71 -172s-108 -72 -173 -72zM287 364c-84 0 -153 -69 -153 -153c0 -85 69 -154 153 -154c85 0 154 69 154 154c0 84 -69 153 -154 153zM288 705
c5 0 10 -1 15 -3l99 -55c15 -8 20 -26 12 -41c-8 -14 -26 -19 -40 -11l-86 46l-86 -46c-14 -8 -32 -3 -40 11c-8 15 -3 33 12 41l100 55c4 2 9 3 14 3z" />
    <glyph glyph-name="otilde" unicode="&#xf5;" horiz-adv-x="575" 
d="M287 -33c-65 0 -126 26 -172 72s-71 107 -71 172s25 126 71 172s107 71 172 71s127 -25 173 -71s71 -107 71 -172s-25 -126 -71 -172s-108 -72 -173 -72zM287 364c-84 0 -153 -69 -153 -153c0 -85 69 -154 153 -154c85 0 154 69 154 154c0 84 -69 153 -154 153zM342 586
c-24 0 -49 11 -74 34c-28 25 -44 28 -52 3c-4 -13 -15 -21 -28 -21c-20 0 -35 19 -29 39c2 4 15 46 55 57c30 8 61 -1 95 -33c25 -24 43 -22 52 -1c6 15 23 23 39 17c15 -6 23 -23 17 -39c-2 -4 -18 -44 -59 -54c-5 -1 -11 -2 -16 -2z" />
    <glyph glyph-name="odieresis" unicode="&#xf6;" horiz-adv-x="575" 
d="M287 -33c65 0 127 26 173 72s71 107 71 172s-25 126 -71 172s-108 71 -173 71s-126 -25 -172 -71s-71 -107 -71 -172s25 -126 71 -172s107 -72 172 -72zM287 364c85 0 154 -69 154 -153c0 -85 -69 -154 -154 -154c-84 0 -153 69 -153 154c0 84 69 153 153 153zM217 679
c25 0 45 -20 45 -45s-20 -45 -45 -45s-45 20 -45 45s20 45 45 45zM357 679c25 0 45 -20 45 -45s-20 -45 -45 -45s-45 20 -45 45s20 45 45 45z" />
    <glyph glyph-name="ugrave" unicode="&#xf9;" horiz-adv-x="520" 
d="M415 454c24 0 45 -20 45 -45v-323c0 -25 -21 -45 -45 -45c-23 0 -41 16 -45 37c-33 -24 -74 -37 -117 -37c-114 0 -207 92 -207 206v162c0 25 20 45 45 45s45 -20 45 -45v-162c0 -64 52 -116 117 -116c64 0 116 52 116 116c0 2 0 3 1 4v158c0 25 20 45 45 45zM334 586
c-3 0 -6 1 -10 2l-149 55c-15 5 -23 23 -18 38c6 16 23 24 39 18l149 -55c31 -10 22 -58 -11 -58z" />
    <glyph glyph-name="uacute" unicode="&#xfa;" horiz-adv-x="520" 
d="M415 454c24 0 45 -20 45 -45v-323c0 -25 -21 -45 -45 -45c-23 0 -41 16 -45 37c-33 -24 -74 -37 -117 -37c-114 0 -207 92 -207 206v162c0 25 20 45 45 45s45 -20 45 -45v-162c0 -64 52 -116 117 -116c64 0 116 52 116 116c0 2 0 3 1 4v158c0 25 20 45 45 45zM186 586
c-32 0 -42 49 -10 58l149 55c15 6 32 -2 38 -18c6 -15 -2 -33 -18 -38l-149 -55c-3 -1 -7 -2 -10 -2z" />
    <glyph glyph-name="ucircumflex" unicode="&#xfb;" horiz-adv-x="520" 
d="M415 454c24 0 45 -20 45 -45v-323c0 -25 -21 -45 -45 -45c-23 0 -41 16 -45 37c-33 -24 -74 -37 -117 -37c-114 0 -207 92 -207 206v162c0 25 20 45 45 45s45 -20 45 -45v-162c0 -64 52 -116 117 -116c64 0 116 52 116 116c0 2 0 3 1 4v158c0 25 20 45 45 45zM260 705
c5 0 10 -1 15 -3l99 -55c15 -8 20 -26 12 -41c-8 -14 -26 -19 -40 -11l-86 46l-86 -46c-14 -8 -32 -3 -40 11c-8 15 -3 33 12 41l100 55c4 2 9 3 14 3z" />
    <glyph glyph-name="udieresis" unicode="&#xfc;" horiz-adv-x="520" 
d="M415 454c24 0 45 -20 45 -45v-323c0 -25 -21 -45 -45 -45c-23 0 -41 16 -45 37c-33 -24 -74 -37 -117 -37c-114 0 -207 92 -207 206v162c0 25 20 45 45 45s45 -20 45 -45v-162c0 -64 52 -116 117 -116c64 0 116 52 116 116c0 2 0 3 1 4v158c0 25 20 45 45 45zM190 679
c25 0 45 -20 45 -45s-20 -45 -45 -45s-45 20 -45 45s20 45 45 45zM330 679c25 0 45 -20 45 -45s-20 -45 -45 -45s-45 20 -45 45s20 45 45 45z" />
    <glyph glyph-name="yacute" unicode="&#xfd;" horiz-adv-x="562" 
d="M522 387l-308 -535c-8 -14 -23 -22 -39 -22c-25 0 -45 21 -45 45c0 8 2 15 6 22l88 152l-185 338c-12 22 -4 50 18 62c22 11 49 3 61 -18l159 -290l167 291c13 21 40 28 62 16c14 -8 22 -23 22 -39c0 -8 -2 -15 -6 -22zM210 586c-32 0 -42 49 -10 58l149 55
c15 6 32 -2 38 -18c6 -15 -2 -33 -18 -38l-149 -55c-3 -1 -7 -2 -10 -2z" />
    <glyph glyph-name="ydieresis" unicode="&#xff;" horiz-adv-x="562" 
d="M522 387l-308 -535c-8 -14 -23 -22 -39 -22c-25 0 -45 21 -45 45c0 8 2 15 6 22l88 152l-185 338c-12 22 -4 50 18 62c22 11 49 3 61 -18l159 -290l167 291c13 21 40 28 62 16c14 -8 22 -23 22 -39c0 -8 -2 -15 -6 -22zM214 679c25 0 45 -20 45 -45s-20 -45 -45 -45
s-45 20 -45 45s20 45 45 45zM354 679c25 0 45 -20 45 -45s-20 -45 -45 -45s-45 20 -45 45s20 45 45 45z" />
    <glyph glyph-name="scaron" unicode="&#x161;" horiz-adv-x="456" 
d="M261 -72h-162c-25 0 -45 21 -45 45c0 25 20 45 45 45h162c32 0 59 27 59 59c0 27 -19 50 -45 57l-116 27c-32 8 -61 27 -81 52c-21 27 -32 59 -32 93c0 82 67 148 148 148h142c25 0 45 -20 45 -45s-20 -45 -45 -45h-142c-32 0 -58 -26 -58 -58c0 -27 18 -51 44 -57
l116 -28c32 -8 61 -26 81 -52c21 -26 33 -59 33 -92c0 -82 -67 -149 -149 -149zM346 644l-101 -54c-9 -5 -20 -4 -28 0l-101 54c-14 8 -20 27 -12 41c8 15 26 20 41 12l86 -47v0l86 47c15 8 33 3 41 -12c8 -14 2 -33 -12 -41z" />
    <glyph glyph-name="Scaron" unicode="&#x160;" horiz-adv-x="466" 
d="M254 -33h-158c-25 0 -45 20 -45 45s20 45 45 45h158c46 0 84 38 84 84c0 39 -26 72 -64 82l-109 26c-38 9 -71 31 -95 61c-25 30 -38 69 -38 108c0 96 78 174 174 174h123c25 0 45 -20 45 -45s-20 -45 -45 -45h-123c-46 0 -84 -38 -84 -84c0 -39 26 -73 64 -82l109 -26
c38 -9 71 -31 95 -61c25 -30 38 -69 38 -108c0 -96 -78 -174 -174 -174zM356 724l-101 -54c-9 -5 -20 -4 -28 0l-101 54c-14 8 -20 27 -12 41c8 15 26 20 41 12l86 -47v0l86 47c15 8 33 3 41 -12c8 -14 2 -33 -12 -41z" />
    <glyph glyph-name="zcaron" unicode="&#x17e;" horiz-adv-x="489" 
d="M96 364c-25 0 -45 20 -45 45s20 45 45 45h298c21 -1 34 -11 42 -28c6 -16 2 -37 -9 -47v0l-229 -249h196c25 0 45 -20 45 -45c0 -24 -20 -45 -45 -45h-298c-18 0 -35 11 -42 27c-7 17 -4 36 8 49l229 248h-195zM360 644l-101 -54c-9 -5 -20 -4 -28 0l-101 54
c-14 8 -20 27 -12 41c8 15 26 20 41 12l86 -47v0l86 47c15 8 33 3 41 -12c8 -14 2 -33 -12 -41z" />
    <glyph glyph-name="Zcaron" unicode="&#x17d;" 
d="M510 -33h-414c-38 0 -58 44 -35 73l357 462h-322c-25 0 -45 20 -45 45s20 45 45 45h414c38 0 57 -44 36 -73l-358 -462h322c25 0 45 -20 45 -45s-20 -45 -45 -45zM416 724l-101 -54c-9 -5 -20 -4 -28 0l-101 54c-14 8 -20 27 -12 41c8 15 26 20 41 12l86 -47v0l86 47
c15 8 33 3 41 -12c8 -14 2 -33 -12 -41z" />
    <glyph glyph-name="Ydieresis" unicode="&#x178;" horiz-adv-x="606" 
d="M551 585c21 -14 27 -42 14 -62l-217 -337v-174c0 -25 -20 -45 -45 -45s-45 20 -45 45v174l-217 337c-14 20 -8 48 13 62c21 13 49 7 63 -14l186 -289l186 289c13 21 41 27 62 14zM230 759c25 0 45 -20 45 -45s-20 -45 -45 -45s-45 20 -45 45s20 45 45 45zM370 759
c25 0 45 -20 45 -45s-20 -45 -45 -45s-45 20 -45 45s20 45 45 45z" />
    <glyph glyph-name="Thorn" unicode="&#xde;" horiz-adv-x="515" 
d="M291 592c98 0 178 -80 178 -178s-80 -178 -178 -178h-145v-223c0 -25 -20 -45 -45 -45s-45 20 -45 45v534v175c0 25 20 45 45 45s45 -20 45 -45v-130h145zM291 326c48 0 88 39 88 88s-40 88 -88 88h-145v-176h145z" />
    <glyph glyph-name="thorn" unicode="&#xfe;" horiz-adv-x="589" 
d="M472 382c46 -46 71 -107 71 -172s-25 -126 -71 -172s-107 -71 -173 -71c-56 0 -110 19 -153 54v-147c0 -25 -20 -45 -45 -45s-45 20 -45 45v746c0 25 20 45 45 45s45 -20 45 -45v-221c43 35 97 55 153 55c66 0 127 -26 173 -72zM299 57c85 0 154 69 154 153
c0 85 -69 154 -154 154c-84 0 -153 -69 -153 -154c0 -84 69 -153 153 -153z" />
    <glyph glyph-name="guilsinglleft" unicode="&#x2039;" horiz-adv-x="411" 
d="M272 41c-10 0 -19 4 -25 13l-133 198c-7 11 -7 24 0 34l133 199c9 13 28 17 42 8c14 -10 17 -28 8 -42l-122 -182l122 -182c14 -20 -1 -46 -25 -46z" />
    <glyph glyph-name="guilsinglright" unicode="&#x203a;" horiz-adv-x="411" 
d="M139 41c-24 -1 -38 27 -25 46l122 182l-122 182c-9 14 -6 32 8 42c14 9 33 5 42 -8l133 -199c7 -10 7 -23 0 -34l-133 -198c-6 -9 -15 -13 -25 -13z" />
    <glyph glyph-name="guillemotright" unicode="&#xbb;" horiz-adv-x="561" 
d="M139 41c-24 0 -39 26 -25 46l122 182l-122 182c-9 14 -6 32 8 42c14 9 33 5 42 -8l133 -199c7 -10 7 -23 0 -34l-133 -198c-6 -9 -15 -13 -25 -13zM289 41c-24 0 -39 26 -25 46l122 182l-122 182c-9 14 -6 32 8 42c14 9 33 5 42 -8l133 -199c7 -10 7 -23 0 -34l-133 -198
c-6 -9 -15 -13 -25 -13z" />
    <glyph glyph-name="guillemotleft" unicode="&#xab;" horiz-adv-x="561" 
d="M272 41c-10 0 -19 4 -25 13l-133 198c-7 11 -7 24 0 34l133 199c9 13 28 17 42 8c14 -10 17 -28 8 -42l-122 -182l122 -182c14 -20 -1 -46 -25 -46zM422 41c-10 0 -19 4 -25 13l-133 198c-7 11 -7 24 0 34l133 199c9 13 28 17 42 8c14 -10 17 -28 8 -42l-122 -182
l122 -182c14 -20 -1 -46 -25 -46z" />
    <glyph glyph-name="periodcentered" unicode="&#xb7;" horiz-adv-x="686" 
d="M408 298c0 -36 -29 -65 -65 -65s-65 29 -65 65s29 65 65 65s65 -29 65 -65z" />
    <glyph glyph-name="eth" unicode="&#xf0;" horiz-adv-x="579" 
d="M552 582c17 0 30 -14 30 -30c0 -17 -13 -30 -30 -30h-25v-510c0 -25 -20 -45 -45 -45s-45 20 -45 45v10c-43 -35 -97 -55 -153 -55c-65 0 -126 26 -172 72s-72 107 -72 172s26 126 72 172s107 71 172 71c56 0 110 -19 153 -54v122h-75c-17 0 -30 13 -30 30
c0 16 13 30 30 30h75v39c0 24 20 45 45 45s45 -21 45 -45v-39h25zM284 57c84 0 153 69 153 154c0 84 -69 153 -153 153c-85 0 -154 -69 -154 -153c0 -85 69 -154 154 -154z" />
    <glyph glyph-name="Eth" unicode="&#xd0;" horiz-adv-x="604" 
d="M532 401c16 -38 24 -79 24 -121s-8 -83 -24 -122c-16 -37 -39 -70 -67 -99c-29 -29 -62 -51 -100 -67s-79 -25 -121 -25h-143c-25 0 -45 20 -45 45v238h-25c-16 0 -30 13 -30 30c0 16 14 30 30 30h25v237c0 25 20 45 45 45h143c42 0 83 -8 121 -24s71 -39 100 -67
c28 -29 51 -62 67 -100zM401 122c42 42 65 98 65 158c0 59 -23 115 -65 157s-98 65 -157 65h-98v-192h75c17 0 30 -14 30 -30c0 -17 -13 -30 -30 -30h-75v-193h98c59 0 115 23 157 65z" />
    <glyph glyph-name="currency" unicode="&#xa4;" horiz-adv-x="661" 
d="M505 186l83 -82c17 -18 17 -46 0 -64c-17 -17 -47 -17 -64 0l-82 83c-33 -21 -71 -33 -111 -33c-41 0 -79 12 -111 33l-83 -83c-17 -17 -46 -18 -64 0c-17 18 -17 46 0 64l83 82c-20 32 -32 70 -32 111s12 79 32 111l-83 83c-17 17 -17 46 0 63c18 18 47 18 64 0l83 -82
c32 20 70 32 111 32c40 0 78 -12 111 -32l72 82c18 18 46 18 64 0c17 -17 17 -46 0 -63l-73 -83c21 -32 32 -70 32 -111s-11 -79 -32 -111zM331 180c64 0 116 53 116 117c0 16 -3 31 -8 45c-18 42 -61 72 -108 72c-46 0 -91 -29 -108 -72c-6 -14 -9 -29 -9 -45
c0 -64 53 -117 117 -117z" />
    <glyph glyph-name="germandbls" unicode="&#xdf;" horiz-adv-x="586" 
d="M286 -33c-24 0 -45 20 -45 45s21 45 45 45c89 0 162 72 162 161s-73 162 -162 162c-24 0 -45 20 -45 45s21 45 45 45c36 0 65 29 65 64c0 36 -29 65 -65 65c-68 0 -123 -55 -123 -123v-390c0 -40 -15 -78 -43 -106c-18 -17 -46 -17 -64 0c-18 18 -18 46 0 64
c11 11 17 26 17 42v390c0 118 96 213 213 213c86 0 155 -69 155 -155c0 -36 -12 -69 -33 -95c20 -12 39 -26 56 -43c48 -47 74 -111 74 -178s-26 -130 -74 -177c-47 -48 -110 -74 -178 -74z" />
    <glyph glyph-name="mu" unicode="&#xb5;" horiz-adv-x="559" 
d="M464 274c25 0 45 -20 45 -45s-20 -45 -45 -45c-68 0 -124 56 -124 124v82c-33 -21 -70 -31 -109 -31c-24 0 -47 4 -68 11v-213c0 -39 -25 -116 -75 -116c-11 0 -23 5 -32 14c-17 17 -17 46 0 63c11 11 17 24 17 39v325c0 25 20 45 45 45c24 0 45 -20 45 -45v-11
c19 -14 43 -22 68 -22c49 0 93 32 109 78v28c0 25 20 45 45 45s45 -20 45 -45v-247c0 -18 15 -34 34 -34z" />
    <glyph glyph-name="oe" unicode="&#x153;" horiz-adv-x="967" 
d="M919 273c2 -9 4 -17 4 -30c0 -62 -50 -112 -111 -112h-260c27 -44 76 -74 132 -74c25 0 45 -20 45 -45s-20 -45 -45 -45c-65 0 -126 25 -172 71c-10 10 -19 20 -26 31c-8 -11 -17 -21 -27 -31c-46 -46 -107 -71 -172 -71s-126 25 -172 71s-71 107 -71 172s25 126 71 172
s107 71 172 71s126 -25 172 -71c10 -10 19 -20 27 -31c7 11 16 21 26 31c46 46 107 71 172 71c110 0 207 -74 235 -180zM287 57c85 0 154 69 154 153c0 85 -69 153 -154 153c-84 0 -153 -68 -153 -153c0 -84 69 -153 153 -153zM812 221c12 0 21 10 21 22c0 2 0 4 -1 7v0
c-18 67 -79 113 -148 113c-81 0 -147 -62 -153 -142h281z" />
    <glyph glyph-name="OE" unicode="&#x152;" horiz-adv-x="1002" 
d="M919 86c25 0 45 -20 45 -45s-20 -45 -45 -45h-298c-25 0 -45 20 -45 45v48c-59 -57 -140 -93 -222 -93c-83 0 -161 33 -221 91c-58 58 -91 138 -91 221s32 162 91 221s138 91 221 91s162 -32 221 -91c0 -1 0 -1 1 -2v49c0 25 20 45 45 45h298c25 0 45 -20 45 -45
s-20 -45 -45 -45h-253v-177h163c25 0 45 -20 45 -45s-20 -45 -45 -45h-163v-178h253zM511 151c42 42 65 98 65 157s-23 115 -65 157s-98 65 -157 65c-60 0 -115 -23 -157 -65s-65 -98 -65 -157s23 -115 65 -157s97 -65 157 -65c59 0 115 23 157 65z" />
    <glyph glyph-name="AE" unicode="&#xc6;" horiz-adv-x="800" 
d="M717 57c25 0 45 -20 45 -45s-20 -45 -45 -45h-298c-25 0 -45 20 -45 45v81h-191l-67 -105c-9 -14 -23 -21 -38 -21c-35 0 -56 39 -38 69l341 535c9 13 23 21 38 21h298c25 0 45 -20 45 -45s-20 -45 -45 -45h-253v-177h163c25 0 45 -20 45 -45s-20 -45 -45 -45h-163v-178
h253zM241 183h133v210z" />
    <glyph glyph-name="ae" unicode="&#xe6;" horiz-adv-x="968" 
d="M920 274c2 -10 4 -20 4 -30c0 -62 -50 -112 -112 -112h-259c26 -44 75 -74 131 -74c25 0 45 -20 45 -45s-20 -45 -45 -45c-58 0 -114 20 -158 58v-13c0 -22 -18 -40 -40 -40s-40 18 -40 40v13c-44 -38 -100 -58 -159 -58c-65 0 -126 25 -172 71s-71 107 -71 172
s25 126 71 172s107 71 172 71c59 0 115 -20 159 -58v13c0 23 18 40 40 40s40 -17 40 -40v-13c44 38 100 58 158 58c110 0 206 -75 236 -180zM287 58c85 0 154 69 154 153c0 85 -69 153 -154 153c-84 0 -153 -68 -153 -153c0 -84 69 -153 153 -153zM812 222c12 0 22 10 22 22
c0 3 -1 6 -1 6c-19 67 -78 114 -149 114c-81 0 -147 -62 -153 -142h281z" />
    <glyph glyph-name="Oslash" unicode="&#xd8;" horiz-adv-x="708" 
d="M492 588c0 0 174 -71 174 -280c0 -83 -34 -163 -92 -221s-137 -91 -220 -91c-24 0 -47 2 -70 8c-7 -5 -16 -8 -25 -8c-20 0 -38 13 -43 32c-31 15 -59 35 -83 59c-58 58 -91 138 -91 221c0 42 8 83 24 122c16 37 38 70 67 99c60 58 137 91 221 91c23 0 47 -2 69 -8
c12 8 27 11 41 6s24 -17 28 -30zM132 308c0 -76 40 -150 106 -190l146 410c-69 10 -138 -14 -187 -63c-42 -42 -65 -98 -65 -157zM511 151c42 42 65 98 65 157c0 76 -41 151 -107 190l-146 -410c10 -1 20 -2 31 -2c59 0 115 23 157 65z" />
    <glyph glyph-name="oslash" unicode="&#xf8;" horiz-adv-x="575" 
d="M459 383c46 -46 72 -107 72 -172s-26 -126 -72 -172s-107 -71 -172 -71c-12 0 -25 1 -37 3l-15 -42c-7 -19 -24 -30 -43 -30c-31 -1 -52 33 -42 60l15 42c-18 10 -35 23 -50 38c-46 46 -71 107 -71 172s25 126 71 172s107 71 172 71c13 0 26 -1 38 -2l15 41
c8 24 34 36 57 28c24 -9 36 -34 28 -58l-15 -42c18 -10 34 -23 49 -38zM134 211c0 -50 24 -95 62 -123l98 276h-7c-84 0 -153 -68 -153 -153zM287 58c85 0 154 68 154 153c0 50 -25 95 -62 123l-98 -276h6z" />
    <glyph glyph-name="Aacute.case" horiz-adv-x="643" 
d="M316 438l-197 -444c-7 -17 -24 -27 -41 -27c-6 0 -12 1 -18 4c-23 10 -33 36 -23 59l236 535c7 16 23 27 41 27s34 -10 41 -26l250 -535c11 -23 1 -49 -22 -60c-22 -10 -49 -1 -60 22zM247 666c-32 0 -42 49 -10 58l149 55c15 6 32 -2 38 -18c6 -15 -2 -33 -18 -38
l-149 -55c-3 -1 -7 -2 -10 -2z" />
    <glyph glyph-name="logicalnot" unicode="&#xac;" horiz-adv-x="607" 
d="M502 189c-25 0 -45 20 -45 45v130h-352c-24 0 -45 20 -45 45s21 45 45 45h397c25 0 45 -20 45 -45v-175c0 -25 -20 -45 -45 -45z" />
    <glyph glyph-name="ordfeminine" unicode="&#xaa;" horiz-adv-x="454" 
d="M264 736l125 -268c11 -22 1 -49 -21 -59c-23 -11 -50 -1 -60 21l-10 22h-142l-9 -21c-8 -17 -24 -27 -42 -27c-30 0 -54 34 -41 64l119 267c7 16 23 27 40 27h1c17 0 33 -10 40 -26zM195 542h61l-31 66zM318 351c25 0 45 -20 45 -45s-20 -45 -45 -45h-182
c-24 0 -45 20 -45 45s21 45 45 45h182z" />
    <glyph glyph-name="ordmasculine" unicode="&#xba;" horiz-adv-x="575" 
d="M288 762c98 0 178 -81 178 -179c0 -99 -80 -179 -178 -179c-99 0 -179 80 -179 179c0 98 80 179 179 179zM288 494c48 0 88 40 88 89s-40 89 -88 89c-49 0 -89 -40 -89 -89s40 -89 89 -89zM378 351c25 0 45 -20 45 -45s-20 -45 -45 -45h-181c-25 0 -45 20 -45 45
s20 45 45 45h181z" />
    <glyph glyph-name="onesuperior" unicode="&#xb9;" horiz-adv-x="162" 
d="M100 710c25 0 45 -21 45 -45v-162c0 -25 -20 -45 -45 -45s-45 20 -45 45v117c-22 3 -38 22 -38 45c0 24 20 45 45 45h38z" />
    <glyph glyph-name="twosuperior" unicode="&#xb2;" horiz-adv-x="307" 
d="M278 595c0 -30 -11 -58 -31 -79l-69 -74h34c25 0 45 -20 45 -45s-20 -45 -45 -45h-138c-18 0 -34 11 -41 27c-7 17 -4 36 8 49l140 150v0c5 4 7 11 7 17c0 14 -11 25 -25 25c-13 0 -25 -11 -25 -25c0 -25 -20 -45 -45 -45c-24 0 -45 20 -45 45c0 63 52 115 115 115
c64 0 115 -52 115 -115z" />
    <glyph glyph-name="threesuperior" unicode="&#xb3;" horiz-adv-x="302" 
d="M268 593c0 -26 -9 -49 -23 -69c20 -22 32 -51 32 -84c0 -69 -56 -126 -126 -126c-34 0 -67 14 -91 39c-22 23 -35 54 -35 87c0 25 20 45 45 45s45 -20 45 -45c0 -9 4 -18 10 -25c7 -7 16 -11 26 -11c20 0 36 16 36 36s-16 37 -36 37c-25 0 -45 20 -45 45
c0 24 20 45 45 45c15 0 27 11 27 26s-12 27 -27 27c-25 0 -45 20 -45 45c0 24 20 45 45 45c64 0 117 -53 117 -117z" />
    <glyph glyph-name="onequarter" unicode="&#xbc;" horiz-adv-x="960" 
d="M138 710c25 0 45 -21 45 -45v-162c0 -25 -20 -45 -45 -45s-45 20 -45 45v117c-22 3 -38 22 -38 45c0 24 20 45 45 45h38zM859 136c25 0 45 -20 45 -45s-20 -45 -45 -45v-24c0 -25 -20 -45 -45 -45s-45 20 -45 45v24h-117c-32 0 -54 36 -40 64l59 129c11 23 37 33 60 23
c22 -11 32 -38 22 -60l-30 -66h46v153c0 25 20 45 45 45s45 -20 45 -45v-153zM321 -4c18 0 36 12 42 30l190 535c8 23 -4 49 -27 57c-24 9 -50 -4 -58 -27l-190 -534c-11 -29 12 -61 43 -61z" />
    <glyph glyph-name="onehalf" unicode="&#xbd;" horiz-adv-x="960" 
d="M163 710c25 0 45 -21 45 -45v-162c0 -25 -20 -45 -45 -45s-45 20 -45 45v117c-22 3 -38 22 -38 45c0 24 20 45 45 45h38zM880 151c0 -30 -11 -58 -31 -79l-69 -74h34c25 0 45 -20 45 -45s-20 -45 -45 -45h-138c-18 0 -34 11 -41 27c-7 17 -4 36 8 49l140 150v0
c5 4 7 11 7 17c0 14 -11 25 -25 25c-13 0 -25 -11 -25 -25c0 -25 -20 -45 -45 -45c-24 0 -45 20 -45 45c0 63 52 115 115 115c64 0 115 -52 115 -115zM346 -4c18 0 36 12 42 30l190 535c8 23 -4 49 -27 57c-24 9 -50 -4 -58 -27l-190 -534c-11 -29 12 -61 43 -61z" />
    <glyph glyph-name="threequarters" unicode="&#xbe;" horiz-adv-x="960" 
d="M253 593c0 -26 -9 -49 -23 -69c20 -22 32 -51 32 -84c0 -69 -56 -126 -126 -126c-34 0 -67 14 -91 39c-22 23 -35 54 -35 87c0 25 20 45 45 45s45 -20 45 -45c0 -9 4 -18 10 -25c7 -7 16 -11 26 -11c20 0 36 16 36 36s-16 37 -36 37c-25 0 -45 20 -45 45
c0 24 20 45 45 45c15 0 27 11 27 26s-12 27 -27 27c-25 0 -45 20 -45 45c0 24 20 45 45 45c64 0 117 -53 117 -117zM904 136c25 0 45 -20 45 -45s-20 -45 -45 -45v-24c0 -25 -20 -45 -45 -45s-45 20 -45 45v24h-117c-32 0 -54 36 -40 64l59 129c11 23 37 33 60 23
c22 -11 32 -38 22 -60l-30 -66h46v153c0 25 20 45 45 45s45 -20 45 -45v-153zM366 -4c18 0 36 12 42 30l190 535c8 23 -4 49 -27 57c-24 9 -50 -4 -58 -27l-190 -534c-11 -29 12 -61 43 -61z" />
    <glyph glyph-name="one.subs" horiz-adv-x="162" 
d="M100 265c25 0 45 -21 45 -45v-162c0 -25 -20 -45 -45 -45s-45 20 -45 45v117c-22 3 -38 22 -38 45c0 24 20 45 45 45h38z" />
    <glyph glyph-name="four.subs" horiz-adv-x="382" 
d="M294 136c25 0 45 -20 45 -45s-20 -45 -45 -45v-24c0 -25 -20 -45 -45 -45s-45 20 -45 45v24h-117c-32 0 -54 36 -40 64l59 129c11 23 37 33 60 23c22 -11 32 -38 22 -60l-30 -66h46v153c0 25 20 45 45 45s45 -20 45 -45v-153z" />
  </font>
</defs>
</svg>
